<?xml version="1.0" encoding="utf-8"?>
<!-- Generator: Adobe Illustrator 19.0.0, SVG Export Plug-In . SVG Version: 6.00 Build 0)  -->
<svg version="1.1" id="Capa_1" xmlns="http://www.w3.org/2000/svg" xmlns:xlink="http://www.w3.org/1999/xlink" x="0px" y="0px"
	 viewBox="-118 252 928 856" style="enable-background:new -118 252 928 856;" xml:space="preserve">
<style type="text/css">
	.st0{fill:#F5F5F5;}
	.st1{fill:#E7E7E7;}
	.st2{fill:#E1E1E1;}
	.st3{fill:#FFFFFF;}
	.st4{fill:#ECECEC;}
	.st5{fill:#375A64;}
	.st6{fill:#4C4B9E;}
	.st7{opacity:0.3;fill:#FFFFFF;}
	.st8{fill:#676BAF;}
	.st9{opacity:0.15;}
	.st10{fill:#1A2E35;}
	.st11{fill:#2B454E;}
	.st12{fill:#D2913C;}
	.st13{fill:#D268CC;}
	.st14{fill:#FF9090;}
	.st15{fill:#FFAAA8;}
	.st16{opacity:0.3;}
	.st17{fill:#F1BB41;}
	.st18{fill:#383991;}
	.st19{fill:#C76668;}
</style>
<path id="Floor_3_" class="st0" d="M46.3,1016.6c-169.6-97.9-169.6-256.7,0-354.6c169.6-97.9,444.6-97.9,614.2,0
	c169.6,97.9,169.6,256.7,0,354.6C490.9,1114.5,215.9,1114.5,46.3,1016.6z"/>
<path id="Shadow_35_" class="st1" d="M296.7,679.1c-45.4,26.2-45.4,68.7,0,94.9c45.4,26.2,119,26.2,164.3,0
	c45.4-26.2,45.4-68.7,0-94.9C415.6,652.9,342,652.9,296.7,679.1z"/>
<path id="Shadow_42_" class="st2" d="M491.7,1025.4c-0.8-0.4-1.5-0.8-2.3-1.2c-2.8-1.3-5.4-1.7-8.1-3.4c-3.1-1.9-6.2-4-9-6.3
	c-8.1-6.9-18.1-12.2-26.4-18.7c-9.6-7.5-20.3-13.7-28.8-22.4c-9.5-9.7-15.9-21.9-23.5-33.1c-6.7-9.9-14.9-19.5-25.6-24.7l9.2-5.3
	l107.4-61.9c3.8-2.2,3.8-5.7,0-7.9L210.4,682.1c-3.8-2.2-9.9-2.2-13.6,0L-34.8,815.9c-3.8,2.2-3.8,5.7,0,7.9l274.3,158.3
	c3.8,2.2,9.9,2.2,13.6,0l18.9-10.9l27.1-15.7c0,0,1.1,12.7,7.2,21.5c5.3,7.6,20.9,18.6,29.4,22.3c8,3.5,15.9,7.4,23.4,11.8
	c8.1,4.8,16.6,9.1,24.7,14c4.1,2.5,8.2,5.2,11.2,9c1.7,2.1,3,4.6,4.5,6.8c6.3,9.4,16,16.2,26.5,20.4s21.8,6.8,33.1,7.4
	c14.7,0.8,30.5,0.2,41.3-11.6c4-4.4,4.3-14.1,2.2-19.4C500.7,1032.6,496.4,1028.2,491.7,1025.4z"/>
<path class="st2" d="M15.4,786.9l-16.6,9.6l-7,4.1c-0.6-5.8-2.2-20.8-4.3-37c-3-22.8-6.7-38.9-14.7-54.4
	c-7.3-14.1-18-27.6-35.1-45.3c-25.3-26.3-16.7-51.5,4.9-53.1c35.2-2.7,57.3,30.9,68.7,68.5C21.1,712,19.9,760.7,15.4,786.9z"/>
<path class="st3" d="M4.9,792.1c0,0-0.1,0-0.2,0c-0.8-0.1-1.3-0.8-1.2-1.5c8.5-79.6-21.1-139.3-54.3-163.2c-0.6-0.5-0.8-1.3-0.3-2
	c0.5-0.6,1.3-0.8,2-0.3c33.8,24.4,64.1,85.1,55.4,165.8C6.3,791.6,5.7,792.1,4.9,792.1z"/>
<path class="st4" d="M-1.2,796.4l-7,4.1l-8.2,4.7c-1.9-15-7.8-37.1-25.3-54.3c-19.9-19.7-45.4-30.3-49.9-47.5
	c-4.3-16.4,10.6-28.2,34.9-19.7c10.9,3.8,21.3,11.4,29.6,21.8C-9.6,727.3,1.4,762.5-1.2,796.4z"/>
<path class="st3" d="M-8.3,801C-8.3,801-8.3,801-8.3,801c-0.8,0-1.4-0.6-1.4-1.4c0.6-50.8-29.3-88.2-59.1-102.7
	c-0.7-0.3-1-1.2-0.6-1.9c0.3-0.7,1.2-1,1.9-0.6c30.6,14.9,61.2,53.2,60.7,105.3C-6.9,800.4-7.5,801-8.3,801z"/>
<path class="st5" d="M295.9,649.5c0-0.9,0.6-1.8,1.7-2.4c2.3-1.3,6.1-1.3,8.4,0c1.2,0.7,1.7,1.5,1.7,2.4l-21.2,73.9h0
	c0,0.6-0.4,1.2-1.2,1.7c-1.6,0.9-4.3,0.9-5.9,0c-0.8-0.5-1.2-1.1-1.2-1.7h0L295.9,649.5z"/>
<path class="st5" d="M459.1,649.5c0-0.9-0.6-1.8-1.7-2.4c-2.3-1.3-6.1-1.3-8.4,0c-1.2,0.7-1.7,1.5-1.7,2.4l21.2,73.9h0
	c0,0.6,0.4,1.2,1.2,1.7c1.6,0.9,4.3,0.9,5.9,0c0.8-0.5,1.2-1.1,1.2-1.7h0L459.1,649.5z"/>
<path class="st5" d="M384.1,659c0-0.9-0.6-1.8-1.7-2.4c-2.3-1.3-6.1-1.3-8.4,0c-1.2,0.7-1.7,1.5-1.7,2.4l1.7,97.6h0
	c0,0.6,0.4,1.2,1.2,1.7c1.6,0.9,4.3,0.9,5.9,0c0.8-0.5,1.2-1.1,1.2-1.7h0L384.1,659z"/>
<path class="st6" d="M484.7,608.3L484.7,608.3c-0.1-15.7-10.4-31.5-31.2-43.5c-41.6-24-109.1-24-150.7,0
	c-20.8,12-31.1,27.7-31.1,43.5h-0.1v8.5l0,0c0.2,15.5,10.7,31,31.2,42.9c41.6,24,109.1,24,150.7,0c20.5-11.9,31-27.3,31.2-42.9l0,0
	V608.3z"/>
<path class="st7" d="M484.7,608.3L484.7,608.3c-0.1-15.7-10.4-31.5-31.2-43.5c-41.6-24-109.1-24-150.7,0
	c-20.8,12-31.1,27.7-31.1,43.5h-0.1v8.5l0,0c0.2,15.5,10.7,31,31.2,42.9c41.6,24,109.1,24,150.7,0c20.5-11.9,31-27.3,31.2-42.9l0,0
	V608.3z"/>
<path id="XMLID_7_" class="st6" d="M302.9,564.9c-41.6,24-41.6,63,0,87c41.6,24,109.1,24,150.7,0c41.6-24,41.6-63,0-87
	C411.9,540.8,344.5,540.8,302.9,564.9z"/>
<path id="XMLID_6_" class="st8" d="M302.9,564.9c-41.6,24-41.6,63,0,87c41.6,24,109.1,24,150.7,0c41.6-24,41.6-63,0-87
	C411.9,540.8,344.5,540.8,302.9,564.9z"/>
<path class="st9" d="M311.9,609.1l74.9,43.3c4,2.3,10.6,2.3,14.6,0l49.4-28.5c4-2.3,4-6.1,0-8.4l-74.9-43.3c-4-2.3-10.6-2.3-14.6,0
	l-49.4,28.5C307.9,603,307.9,606.8,311.9,609.1z"/>
<polygon id="XMLID_5_" points="447.7,616.7 393.6,647.5 317.4,603.7 371.4,572.9 "/>
<path id="XMLID_4_" class="st0" d="M393,645.1l52.1-29.9c-1.4-3.9-1.3-8.4,0.3-13.5l-51.8,29.6C393.6,631.3,392.6,634.6,393,645.1z"
	/>
<path id="XMLID_3_" class="st10" d="M396.3,627.1c-2.8,1.6-5,5.4-5,8.6v10.1c0,3.2,2.2,4.5,5,2.9l51.4-29.5l0-2.5L397,645.6
	c-1.7,1-3,0.2-3-1.7l0-9.3c0-1.9,1.3-4.2,3-5.2l50.6-28.9v-2.8L396.3,627.1z"/>
<path id="XMLID_2_" class="st5" d="M447.7,597.6l-76.3-43.7L320,583.3c-2.8,1.6-5,5.4-5,8.6l0,10.1c0,1.6,0.6,2.7,1.5,3.2l76.3,43.7
	c-0.9-0.5-1.5-1.6-1.5-3.2l0-10.1c0-3.2,2.2-7,5-8.6L447.7,597.6z"/>
<path id="XMLID_1_" class="st11" d="M392.8,630.8c-0.9,1.6-1.5,3.3-1.5,4.9l0,10.1c0,1.6,0.6,2.7,1.5,3.2l-76.3-43.7
	c-0.9-0.5-1.5-1.6-1.5-3.2l0-10.1c0-1.6,0.6-3.3,1.5-4.9L392.8,630.8z"/>
<path class="st6" d="M355.3,281.7c3,1.4,5.7,3.2,8.2,5.3c2.5,2.1,4.4,4.6,5.9,7.2c1.5,2.7,2.3,5.5,2.5,8.5c0.2,3-0.4,6.1-1.8,9.2
	c-1.2,2.6-2.6,4.6-4.3,6.1c-1.7,1.5-3.5,2.7-5.4,3.7c-1.9,0.9-3.9,1.7-6,2.2c-2.1,0.6-4,1.1-5.8,1.6c-1.8,0.5-3.5,1.2-5.1,1.9
	c-1.6,0.8-2.8,1.8-3.6,3.1c-0.5,0.6-1,1.1-1.7,1.4c-0.7,0.3-1.4,0.3-2.1,0l-7.3-3.4c-0.7-0.3-1.2-0.9-1.5-1.6
	c-0.3-0.8-0.3-1.5,0.1-2.2c1.3-2.4,2.8-4.4,4.6-5.8c1.8-1.5,3.7-2.6,5.7-3.5c2-0.9,4-1.6,6.1-2.1c2.1-0.5,4-1,5.8-1.6
	c1.8-0.5,3.4-1.2,4.7-1.9c1.4-0.7,2.3-1.8,3-3.1c1.1-2.4,1-4.9-0.3-7.4c-1.3-2.5-3.7-4.6-7.1-6.1c-5.4-2.5-10.7-1.6-15.8,2.6
	c-0.6,0.6-1.2,0.9-1.7,1.1c-0.5,0.2-1.2,0.1-2-0.3l-7.8-3.6c-0.6-0.3-1-0.7-1.2-1.3c-0.2-0.6-0.2-1.2,0.1-1.8
	c1.1-2.2,2.8-4.2,5.2-5.9c2.4-1.7,5.1-3,8.2-3.9c3.1-0.9,6.4-1.2,9.9-1.1C348.4,279.3,351.9,280.1,355.3,281.7z M333.9,338
	c0.7,0.3,1.2,0.9,1.5,1.6c0.3,0.7,0.3,1.5-0.1,2.2l-3.9,8.4c-0.3,0.7-0.9,1.2-1.6,1.5c-0.7,0.3-1.5,0.3-2.2-0.1l-8.3-3.8
	c-0.7-0.3-1.2-0.9-1.5-1.6c-0.3-0.7-0.3-1.5,0.1-2.2l3.9-8.5c0.3-0.7,0.9-1.2,1.6-1.5c0.8-0.3,1.5-0.2,2.2,0.1L333.9,338z"/>
<path class="st8" d="M352.2,381.6c2.2,0.8,4.2,1.8,6,3.1c1.8,1.3,3.3,2.8,4.5,4.6c1.2,1.7,1.9,3.6,2.3,5.7c0.4,2.1,0.1,4.2-0.6,6.5
	c-0.6,1.8-1.5,3.3-2.5,4.5c-1,1.2-2.2,2.1-3.5,2.9c-1.3,0.8-2.6,1.4-4,1.9c-1.4,0.5-2.7,1-3.9,1.5c-1.2,0.5-2.3,1-3.4,1.7
	c-1,0.6-1.8,1.4-2.3,2.4c-0.3,0.5-0.6,0.8-1.1,1.1c-0.5,0.3-0.9,0.3-1.4,0.1l-5.2-1.8c-0.5-0.2-0.9-0.5-1.2-1
	c-0.3-0.5-0.3-1-0.1-1.5c0.7-1.8,1.6-3.2,2.8-4.3c1.1-1.1,2.4-2.1,3.7-2.8c1.3-0.8,2.7-1.4,4.1-1.9c1.4-0.5,2.7-1,3.9-1.5
	c1.2-0.5,2.2-1,3.1-1.6c0.9-0.6,1.5-1.4,1.8-2.3c0.6-1.7,0.4-3.4-0.7-5.1c-1.1-1.6-2.8-2.9-5.3-3.7c-3.9-1.4-7.5-0.4-10.7,2.8
	c-0.4,0.4-0.8,0.7-1.1,0.9c-0.3,0.2-0.8,0.1-1.4-0.1l-5.6-2c-0.4-0.1-0.7-0.4-0.9-0.8c-0.2-0.4-0.2-0.8-0.1-1.3
	c0.6-1.6,1.7-3.1,3.2-4.4c1.5-1.3,3.3-2.4,5.4-3.2c2.1-0.8,4.3-1.3,6.8-1.4C347.4,380.4,349.8,380.8,352.2,381.6z M341.3,421.7
	c0.5,0.2,0.9,0.5,1.1,1c0.2,0.5,0.3,1,0.1,1.5l-2.1,6.1c-0.2,0.5-0.5,0.9-1,1.1c-0.5,0.2-1,0.3-1.5,0.1l-5.9-2.1
	c-0.5-0.2-0.9-0.5-1.1-1c-0.2-0.5-0.3-1-0.1-1.5l2.1-6.1c0.2-0.5,0.5-0.9,1-1.1c0.5-0.2,1-0.3,1.5-0.1L341.3,421.7z"/>
<path class="st8" d="M352.2,381.6c2.2,0.8,4.2,1.8,6,3.1c1.8,1.3,3.3,2.8,4.5,4.6c1.2,1.7,1.9,3.6,2.3,5.7c0.4,2.1,0.1,4.2-0.6,6.5
	c-0.6,1.8-1.5,3.3-2.5,4.5c-1,1.2-2.2,2.1-3.5,2.9c-1.3,0.8-2.6,1.4-4,1.9c-1.4,0.5-2.7,1-3.9,1.5c-1.2,0.5-2.3,1-3.4,1.7
	c-1,0.6-1.8,1.4-2.3,2.4c-0.3,0.5-0.6,0.8-1.1,1.1c-0.5,0.3-0.9,0.3-1.4,0.1l-5.2-1.8c-0.5-0.2-0.9-0.5-1.2-1
	c-0.3-0.5-0.3-1-0.1-1.5c0.7-1.8,1.6-3.2,2.8-4.3c1.1-1.1,2.4-2.1,3.7-2.8c1.3-0.8,2.7-1.4,4.1-1.9c1.4-0.5,2.7-1,3.9-1.5
	c1.2-0.5,2.2-1,3.1-1.6c0.9-0.6,1.5-1.4,1.8-2.3c0.6-1.7,0.4-3.4-0.7-5.1c-1.1-1.6-2.8-2.9-5.3-3.7c-3.9-1.4-7.5-0.4-10.7,2.8
	c-0.4,0.4-0.8,0.7-1.1,0.9c-0.3,0.2-0.8,0.1-1.4-0.1l-5.6-2c-0.4-0.1-0.7-0.4-0.9-0.8c-0.2-0.4-0.2-0.8-0.1-1.3
	c0.6-1.6,1.7-3.1,3.2-4.4c1.5-1.3,3.3-2.4,5.4-3.2c2.1-0.8,4.3-1.3,6.8-1.4C347.4,380.4,349.8,380.8,352.2,381.6z M341.3,421.7
	c0.5,0.2,0.9,0.5,1.1,1c0.2,0.5,0.3,1,0.1,1.5l-2.1,6.1c-0.2,0.5-0.5,0.9-1,1.1c-0.5,0.2-1,0.3-1.5,0.1l-5.9-2.1
	c-0.5-0.2-0.9-0.5-1.1-1c-0.2-0.5-0.3-1-0.1-1.5l2.1-6.1c0.2-0.5,0.5-0.9,1-1.1c0.5-0.2,1-0.3,1.5-0.1L341.3,421.7z"/>
<path class="st8" d="M421.1,389c0.6,0,1.2,0.3,1.6,0.8c0.4,0.5,0.6,1.1,0.6,1.7l-0.6,7.6c0,0.6-0.3,1.2-0.8,1.6
	c-0.5,0.4-1.1,0.6-1.7,0.6l-7.4-0.6c-0.6,0-1.2-0.3-1.6-0.8c-0.4-0.5-0.6-1.1-0.6-1.7l0.6-7.6c0-0.6,0.3-1.2,0.8-1.6
	c0.5-0.4,1.1-0.6,1.7-0.6L421.1,389z M421.4,339.8c2.7,0.2,5.3,0.8,7.8,1.7c2.5,0.9,4.7,2.2,6.6,3.8c1.9,1.6,3.3,3.6,4.4,5.8
	c1,2.3,1.5,4.8,1.2,7.6c-0.2,2.3-0.7,4.3-1.5,5.9c-0.8,1.6-1.9,3.1-3.1,4.4c-1.2,1.3-2.5,2.4-3.9,3.4c-1.4,1-2.7,2-4,2.9
	c-1.3,0.9-2.4,1.9-3.3,2.9c-1,1-1.6,2.2-1.9,3.4c-0.2,0.6-0.5,1.1-0.9,1.6s-1,0.6-1.6,0.6l-6.6-0.5c-0.6,0-1.2-0.3-1.6-0.8
	c-0.5-0.5-0.6-1.1-0.5-1.7c0.3-2.2,0.9-4.2,1.9-5.8c1-1.6,2.1-3.1,3.4-4.3c1.3-1.3,2.6-2.4,4.1-3.4c1.4-1,2.8-1.9,4-2.9
	c1.2-0.9,2.3-1.9,3.1-2.8c0.8-0.9,1.3-2,1.4-3.2c0.2-2.2-0.6-4.1-2.4-5.6c-1.7-1.5-4.1-2.4-7.2-2.7c-4.9-0.4-8.7,1.8-11.3,6.5
	c-0.3,0.6-0.7,1.1-1,1.4c-0.3,0.3-0.9,0.4-1.6,0.4l-7-0.5c-0.5,0-0.9-0.2-1.3-0.6c-0.3-0.4-0.5-0.8-0.5-1.4c0.2-2,1-4,2.3-6
	c1.3-2,3.1-3.8,5.2-5.3c2.1-1.5,4.5-2.8,7.3-3.7C415.4,339.9,418.3,339.5,421.4,339.8z"/>
<path class="st8" d="M421.1,389c0.6,0,1.2,0.3,1.6,0.8c0.4,0.5,0.6,1.1,0.6,1.7l-0.6,7.6c0,0.6-0.3,1.2-0.8,1.6
	c-0.5,0.4-1.1,0.6-1.7,0.6l-7.4-0.6c-0.6,0-1.2-0.3-1.6-0.8c-0.4-0.5-0.6-1.1-0.6-1.7l0.6-7.6c0-0.6,0.3-1.2,0.8-1.6
	c0.5-0.4,1.1-0.6,1.7-0.6L421.1,389z M421.4,339.8c2.7,0.2,5.3,0.8,7.8,1.7c2.5,0.9,4.7,2.2,6.6,3.8c1.9,1.6,3.3,3.6,4.4,5.8
	c1,2.3,1.5,4.8,1.2,7.6c-0.2,2.3-0.7,4.3-1.5,5.9c-0.8,1.6-1.9,3.1-3.1,4.4c-1.2,1.3-2.5,2.4-3.9,3.4c-1.4,1-2.7,2-4,2.9
	c-1.3,0.9-2.4,1.9-3.3,2.9c-1,1-1.6,2.2-1.9,3.4c-0.2,0.6-0.5,1.1-0.9,1.6s-1,0.6-1.6,0.6l-6.6-0.5c-0.6,0-1.2-0.3-1.6-0.8
	c-0.5-0.5-0.6-1.1-0.5-1.7c0.3-2.2,0.9-4.2,1.9-5.8c1-1.6,2.1-3.1,3.4-4.3c1.3-1.3,2.6-2.4,4.1-3.4c1.4-1,2.8-1.9,4-2.9
	c1.2-0.9,2.3-1.9,3.1-2.8c0.8-0.9,1.3-2,1.4-3.2c0.2-2.2-0.6-4.1-2.4-5.6c-1.7-1.5-4.1-2.4-7.2-2.7c-4.9-0.4-8.7,1.8-11.3,6.5
	c-0.3,0.6-0.7,1.1-1,1.4c-0.3,0.3-0.9,0.4-1.6,0.4l-7-0.5c-0.5,0-0.9-0.2-1.3-0.6c-0.3-0.4-0.5-0.8-0.5-1.4c0.2-2,1-4,2.3-6
	c1.3-2,3.1-3.8,5.2-5.3c2.1-1.5,4.5-2.8,7.3-3.7C415.4,339.9,418.3,339.5,421.4,339.8z"/>
<path class="st12" d="M431.8,726.2L431.8,726.2c2.2,12.9-3.9,25.9-15.3,32.4l-178.9,93.3l-0.5,10.3l-8.2,4.7l10.5,6l197.8-114.5
	L431.8,726.2z"/>
<path class="st13" d="M248.4,478l-45.7,26.4l195,123.3c12.5,7.9,21,20.7,23.4,35.3l28.4,183.9c0.4,2.2,2.8,3.3,4.7,2.2l0,0
	c1.1-0.6,1.7-1.8,1.3-6.3l-16.2-195.4c-0.9-11-8-24.2-19.2-33.1L248.4,478z"/>
<path class="st12" d="M248.4,478l-45.7,26.4l195,123.3c12.5,7.9,21,20.7,23.4,35.3l28.4,183.9c0.4,2.2,2.8,3.3,4.7,2.2l0,0
	c1.1-0.6,1.7-1.8,1.3-6.3l-16.2-195.4c-0.9-11-8-24.2-19.2-33.1L248.4,478z"/>
<path class="st13" d="M433.7,737.3c2.1,12.7-3.8,25.3-15,31.8l-167,96.5l8.9,18.4l161.3-93.1c9.1-5.3,20.8,0.2,22.5,10.6
	L433.7,737.3z"/>
<path class="st12" d="M433.7,737.3c2.1,12.7-3.8,25.3-15,31.8l-167,96.5l8.9,18.4l161.3-93.1c9.1-5.3,20.8,0.2,22.5,10.6
	L433.7,737.3z"/>
<path class="st12" d="M226,865.6l-2.3-13.4L55.1,754.8L75.6,743l-10.2-5.9l-7.7,4.4c-12.8,7.4-27.5-5.8-21.7-19.3l0.7-1.6l-1.1,2.6
	v0l-15.2,35.2l13.3,8.9l11.2-6.5L226,865.6z"/>
<path class="st5" d="M228.2,854.8L55.8,755.1c-6-3.5-10.9-11.9-10.9-18.9v-10.2c0-6.9,4.9-15.4,10.9-18.9l172.4-99.5
	c6-3.5,15.8-3.5,21.8,0l172.4,99.5c6,3.5,10.9,11.9,10.9,18.9v10.3c0,6.9-4.9,15.4-10.9,18.9L250,854.8
	C244,858.2,234.2,858.2,228.2,854.8z"/>
<path class="st11" d="M231.4,856.1c-1.1-0.4-2.2-0.8-3.2-1.4L55.8,755.1c-6-3.5-10.9-11.9-10.9-18.9v-10.2c0-6.1,3.8-13.4,8.8-17.4
	c-3.9,3.5-3.2,8.1,2,11.1l171.6,99.1L231.4,856.1z"/>
<path class="st11" d="M433.3,726.1v10.3c0,7-4.9,15.4-10.9,18.9L250,854.8c-5,2.9-12.7,3.4-18.6,1.3l-4-37.2l0.8,0.5
	c6,3.5,15.8,3.5,21.8,0l172.4-99.5c5.3-3,5.9-7.7,2-11.1C429.5,712.7,433.3,720,433.3,726.1z"/>
<path class="st5" d="M289.5,643.1l-172.4,99.5c-3.5,2-8.2,2.9-12.8,2.5c-0.6,0-1.3-0.1-1.9-0.2c-0.1,0-0.3,0-0.4-0.1
	c-0.4-0.1-0.8-0.1-1.1-0.2c0,0-0.1,0-0.2,0c-0.6-0.1-1.1-0.3-1.7-0.4c-1.3-0.4-2.6-0.9-3.7-1.6l-8.9-5.1c-6-3.5-11.9-11.8-13.1-18.7
	L47.1,572.5c-0.2-0.9-0.2-1.8-0.2-2.7c0-0.4,0-0.7,0-1.1c0.1-1.8,0.5-3.6,1.2-5.3c1.2-3.2,3.2-6.2,5.8-8.2c0.2-0.2,0.5-0.4,0.7-0.6
	c0.4-0.3,0.8-0.5,1.2-0.7l172.4-99.5c6-3.5,15.8-3.5,21.8,0l8.9,5.1c1.8,1,3.6,2.5,5.2,4.3c0.3,0.3,0.6,0.6,0.9,1
	c1.2,1.3,2.3,2.8,3.2,4.3c0.2,0.3,0.4,0.6,0.6,1c0.2,0.3,0.3,0.6,0.5,0.9c0.2,0.4,0.5,0.9,0.7,1.3c0.2,0.4,0.4,0.9,0.6,1.3
	c0.2,0.4,0.3,0.7,0.4,1.1c0.1,0.2,0.1,0.3,0.2,0.5c0.1,0.3,0.2,0.6,0.3,1c0.1,0.4,0.2,0.8,0.3,1.3c0.1,0.3,0.2,0.6,0.2,0.9
	l26.2,146.4C299.4,631.3,295.5,639.6,289.5,643.1z"/>
<path class="st11" d="M77.8,590.2L104,736.6c1.2,6.8,7.1,9.6,13.1,6.1l172.4-99.5c6-3.5,9.9-11.8,8.7-18.7L272,478.1
	c-1.2-6.8-7.1-9.6-13.1-6.1L86.5,571.5C80.5,575,76.6,583.4,77.8,590.2z"/>
<path class="st10" d="M112.7,744.4c-2.6,0.7-5.5,0.9-8.3,0.8c-0.6,0-1.3-0.1-1.9-0.2c-0.5-0.1-1-0.2-1.5-0.3c0,0-0.1,0-0.2,0
	c-0.6-0.1-1.1-0.3-1.7-0.4c-1.3-0.4-2.6-0.9-3.7-1.6l-8.9-5.1c-6-3.5-11.9-11.8-13.1-18.7L47.1,572.5c-0.2-0.9-0.2-1.8-0.2-2.7
	c0-0.4,0-0.7,0-1.1c0.1-1.8,0.5-3.6,1.2-5.3l30.8,17.5c-1.2,3.1-1.6,6.4-1.1,9.4L104,736.6c0.9,5.1,4.4,7.9,8.6,7.6
	C112.6,744.2,112.7,744.3,112.7,744.4z"/>
<path id="XMLID_3036_" class="st14" d="M378.8,834.9c0,0-19.8,42.4-21.5,59.5c-1.8,17.7-6.4,23.4-4.3,42.9
	c0.5,4.2,2.3,12.8,2.6,16.3c0.3,3.1-0.9,5.5-4.9,6.1c-7.8,1.2-19.9-13.9-25.3-30c-5.3-16.1-12.3-52.1-12.6-56.4
	c-0.3-4.1,1.3-9.2,3-12.3c3.1-5.5,3.9-6.3,3.9-6.3c2.9-7.6,4.9-22.3,7.5-32.4L378.8,834.9z"/>
<path class="st10" d="M297.1,888.8c0,0-2.1,3.5-2.3,5.7c-0.4,3.5,7.1,15.6,10,20c2.9,4.4,5.8,9.9,4.8,20.5
	c-1,11.3,3.5,22.5,10.4,32.3c6.9,9.7,19.1,20.6,37.6,27.3c18.5,6.7,25.5-2.4,25.5-2.4s6.3-8.8,2.9-12.6
	C382.7,975.7,297.1,888.8,297.1,888.8z"/>
<path id="XMLID_3027_" class="st11" d="M319.9,854.7c-0.6,0-1.6-0.3-3.1,1.4c-0.6,0.6-4.4,8.9-7.5,13.2
	c-3.3,4.6-10.9,12.3-12.2,19.5c3.7,14.1,16.2,24.4,17.6,37.6c1.3,13.2,0.8,28.5,20.2,45.5c19.4,17,40,19.7,47.7,15.8
	c7.7-3.9,7.4-11.9-2.3-27.6c-10.2-16.7-16-52-16-52c-1.1-6.2,0.6-16.4-5.3-20.4c-2.8-1.9-6.3-2.5-9.6-3c-3.8-0.6-8-1.1-11.3,0.9
	c-2.9,1.8-4.3,5.1-5.1,8.4c-0.8,3.3-1,6.7-2.2,9.8c-0.4,1-1,2.1-2.1,2.2c-1.6,0.2-2.4-1.9-2.6-3.5c-1.2-8.5-2.4-17-3.6-25.4
	c-0.6-4.1-1.2-8.3-1.8-12.4C320.2,861.5,318.9,857.8,319.9,854.7z"/>
<path id="XMLID_3011_" class="st15" d="M404.5,894.3c0,0,12,49.8,22.7,68.7c10.7,18.9,16.1,28,30,41.9c3,3,9.8,8.6,12.3,11
	c2.2,2.2,2.7,4.8,0,7.8c-5.3,5.9-29.3,8.9-43.6-0.3c-14.2-9.2-28.1-29.9-36.8-37.5c-3.2-2.8-6.3-5.8-9.3-8.9c-2.8-3-2.3-6.1-2.8-9.7
	c-0.2-1.7-0.3-6.5-0.3-6.5c-2.5-8.4-8.4-21.3-11.7-29.4L404.5,894.3z"/>
<path class="st10" d="M374.6,999.2c0,0,0,4.1,1.1,6.1c1.6,3.2,14.3,9.5,19.2,11.6c4.8,2.2,10.1,5.3,15,14.8
	c5.2,10.1,14.9,17.2,25.9,21.8c11,4.6,27.2,7.3,46.3,3.1c19.2-4.2,20.3-15.6,20.3-15.6s0.6-10.7-4.2-12.3
	C493.3,1027.3,374.6,999.2,374.6,999.2z"/>
<path id="XMLID_3010_" class="st11" d="M375.8,958.2c-0.5,0.3-1.5,0.6-1.9,2.9c-0.2,0.9,1,9.9,0.7,15.1c-0.3,5.6-2.7,16.2,0,23
	c10.6,10,26.7,12,34.9,22.5c8.1,10.5,15.8,23.7,41.3,27.8c25.5,4.1,44.4-4.6,48.8-12c4.4-7.4-0.1-14-16.6-22.2
	c-17.5-8.7-41.2-35.5-41.2-35.5c-3.3-3.7-6.2-7.9-9-12c-1.7-2.5-1.7-5.1-5.5-5.3c-1.9-0.1-3.7,0.5-5.4,1.1c-3.5,1.2-7,2.6-10.4,4.2
	c-1.7,0.8-3.5,1.7-4.2,3.4c-0.7,1.8-0.1,3.7,0.6,5.5c2.3,6.2,4.6,12.5,6.9,18.7c-7.8-3.7-12.8-11.3-18-18.1
	c-3-3.9-6.2-7.8-10.2-10.8c-1.9-1.4-3.9-2.6-6-3.4c-0.8-0.3-2.9-0.5-3.4-1c-0.3-0.3-0.4-1.5-0.7-1.6
	C376.3,960.3,375.8,958.2,375.8,958.2z"/>
<path class="st13" d="M278.7,639.4c21.7,13.7,96.7,50.1,127.8,75c9,7.2,13.4,18.5,9.2,40.2c-5.8,30.1-28,94.4-28,94.4
	c-2.9,6.1-5.4,17.7-5.4,17.7L267.6,749.1L278.7,639.4z"/>
<path class="st6" d="M278.7,639.4c21.7,13.7,96.7,50.1,127.8,75c9,7.2,13.4,18.5,9.2,40.2c-5.8,30.1-28,94.4-28,94.4
	c-2.9,6.1-5.4,17.7-5.4,17.7L267.6,749.1L278.7,639.4z"/>
<path class="st16" d="M378.8,778.3c-3.1-11.7-11-18.1-18-22.8c-27.8-19-67.1-46.5-74.3-51.8c3.1-7.5,8.1-20.6,2.6-33.4
	c0,0-2.1,28-17.5,39.5l-0.2,0.3c3.9,5.3,81.4,109.9,115,141.8c0.4-1,0.8-1.9,1.1-2.8c0,0,1.5-4.2,3.7-11
	C388.4,820.6,383.5,795.9,378.8,778.3z"/>
<path class="st13" d="M280,636.1L280,636.1l-152.7,35.4c4.4,24.8,6.6,35.4,15.1,49.1c8.5,13.7,22.9,28,72.3,51.1
	c37.2,17.4,83.2,36.5,92.5,40.1c7,2.7,8.7,16.2,13.5,33.4c5.3,19.3,14.3,32.7,22.4,48.6c11.8,23.2,20.7,42.3,20.7,42.3
	s32.4,0.1,49.5-17.3c-32.5-118.7-34.9-127.2-35.8-130.1c-3.9-12.8-4-16.3-21.3-29.5c-14.8-11.3-80.1-53.8-80.1-53.8
	S298.4,670.7,280,636.1z"/>
<path class="st6" d="M280,636.1L280,636.1l-152.7,35.4c4.4,24.8,6.6,35.4,15.1,49.1c8.5,13.7,22.9,28,72.3,51.1
	c37.2,17.4,83.2,36.5,92.5,40.1c7,2.7,8.7,16.2,13.5,33.4c5.3,19.3,14.3,32.7,22.4,48.6c11.8,23.2,20.7,42.3,20.7,42.3
	s32.4,0.1,49.5-17.3c-32.5-118.7-34.9-127.2-35.8-130.1c-3.9-12.8-4-16.3-21.3-29.5c-14.8-11.3-80.1-53.8-80.1-53.8
	S298.4,670.7,280,636.1z"/>
<path class="st15" d="M248.2,477.2c27.9,0.2,41,17.4,49.3,42c8.4,24.6,12.8,37,19.4,56.3c7.1,20.4-30.8,45.4-40.9,39.6l-20.9-53.8
	C253.3,543.1,248.2,477.2,248.2,477.2z"/>
<path class="st17" d="M246.8,470.4c15.4,0.7,27.6,5.8,33.2,11c5.6,5.2,9.6,6.8,22,44.2c8.9,27,10.4,33.2,10.4,33.2s-19,24-55.7,21.1
	l-6.3-14.9L246.8,470.4z"/>
<path class="st13" d="M193.5,466.7L157.4,478c0,0-30.5,22.2-33.5,47.1c-3,24.8-4.1,38-0.7,98.8c1.9,33.4,12.7,81.6,12.7,81.6
	s35,10.3,91.3-10c65.7-23.6,65.7-48.7,65.7-48.7c-7.7-6.4-13.5-17.2-14.4-28c-0.9-10.8-1.1-25.9,0.2-59.9c1.9-48.9-1-78.1-28.4-86.5
	C250.3,472.4,211.2,464.2,193.5,466.7z"/>
<path class="st17" d="M193.5,466.7L157.4,478c0,0-30.5,22.2-33.5,47.1c-3,24.8-4.1,38-0.7,98.8c1.9,33.4,12.7,81.6,12.7,81.6
	s35,10.3,91.3-10c65.7-23.6,65.7-48.7,65.7-48.7c-7.7-6.4-13.5-17.2-14.4-28c-0.9-10.8-1.1-25.9,0.2-59.9c1.9-48.9-1-78.1-28.4-86.5
	C250.3,472.4,211.2,464.2,193.5,466.7z"/>
<path class="st18" d="M244.3,335.6c-37-7.6-68.2,16.9-74.7,39.4c-10,34.9,23.1,61.8,28.4,81.3l90.2-70.7
	C289.6,371.4,281.4,343.2,244.3,335.6z"/>
<path class="st15" d="M220,384.7c-11.8-2.5-14.6,2.8-15.3,10.4c-0.7,7.6-0.1,10.4-1.8,18.3c-0.4,1.7-0.9,3.4-1.8,4.8
	c-1,1.4-2.5,2.5-4.3,2.7c-2.3,0.2-3.3-1.3-4-3.1c-0.9-2.4-1-6.4-5-9.7c-4-3.4-14.5-7-19.4,4.1c-5.1,11.5,4.5,25.6,12.5,29.2
	c10.6,4.8,16.7-5.9,16.7-5.9l-8.4,41.9c18.3,28.9,60.3,21.7,51.9,10l7.8-19c0,0,9.6,1.3,15.8-0.3c7.1-1.4,19.2-4.9,23-29.3
	c1.4-9.1,1.7-34.3,0.7-48.2c-0.8-11.9-3-16-3.5-17.6c-4.9-4.1-20.5-4-28,3.2C245.4,368.5,228.9,369.2,220,384.7z"/>
<path class="st19" d="M258.2,444c-1.4-1.7-3.8-2.8-6-3.3c-1-0.2-2.1-0.4-3.2-0.3c-0.9,0-2.4,0.2-3.2,0.8c-0.3,0.3-0.4,0.6-0.3,1
	c0,0.3,0.3,0.9,0.6,0.9c0.6,0,1.1-0.1,1.6-0.1c0.6-0.1,1.1,0,1.7-0.1c0.9,0,1.9,0.1,2.8,0.3c0.9,0.2,1.8,0.5,2.6,1
	c0.9,0.5,1.7,1.1,2.5,1.7c0.4,0.3,0.9,0.2,1.1-0.3C258.8,445.1,258.6,444.5,258.2,444z"/>
<path id="XMLID_2992_" class="st14" d="M249,468.5c-12.9-1.1-19.8-3.2-25.4-5.5c-10.2-4.2-14.5-5.3-23.4-27.2c0,0,1,19.5,13.1,29.4
	c9.6,7.8,33.1,9.7,33.1,9.7L249,468.5z"/>
<path class="st6" d="M284.8,380c-4.8-13.3-19.3-23.3-27.7-3.7c-11.6-16.6-31.8-14.3-36.1,6.8c-3.1,15.1-1.1,27.5,1.3,35.7
	c0,0-13-6.4-13.6-24.6c0,0-2,13.2-0.4,18.4c0,0-32.2-3.1-41.4-12.8c0,0-7.8-36.4,16.7-45.7c1.9-15.6,25.6-35.5,66.2-25.5
	c40.6,10,46.6,31.5,46.6,31.5s-7.2-4.9-12.7-6.3c0,0,11.7,10,13.1,28.2c1.3,18.1-7.7,27.3-7.7,27.3S288.6,390.7,284.8,380z"/>
<path id="XMLID_2990_" class="st18" d="M182.9,356.8l-12.8-9.6c2.8-3.5,8-4.3,11.5-1.6C185.1,348.3,185.7,353.3,182.9,356.8z"/>
<path id="XMLID_2989_" class="st6" d="M184.6,355.9l-15,5.6c-1.5-4.3,0.7-9,4.9-10.6C178.6,349.3,183.2,351.6,184.6,355.9z"/>
<path class="st10" d="M250.8,363.5c0.1,0,0.3,0,0.4-0.1c0.3-0.2,0.3-0.6,0.1-0.9c-13.8-17.2-50.6-18.9-65-10.1
	c-0.3,0.2-0.4,0.6-0.2,0.9c0.2,0.3,0.6,0.4,0.9,0.2c13.7-8.4,50.2-6.7,63.3,9.8C250.4,363.4,250.6,363.5,250.8,363.5z"/>
<path id="XMLID_2988_" class="st10" d="M245.7,411.4c0.1,2.8-1.9,5.2-4.7,5.4c-2.7,0.1-5-2-5.2-4.9c-0.1-2.8,1.9-5.2,4.7-5.4
	C243.2,406.4,245.5,408.6,245.7,411.4z"/>
<path id="XMLID_2986_" class="st10" d="M281.3,408.8c0.1,2.7-1.9,5.1-4.5,5.2c-2.9,0.1-4.9-1.7-5-4.7c-0.1-2.7,1.9-5.1,4.5-5.2
	C278.9,403.9,281.1,406,281.3,408.8z"/>
<polygon id="XMLID_2984_" class="st14" points="256.9,401.1 259.1,434.6 276.6,427.2 "/>
<path id="XMLID_2980_" class="st10" d="M228.9,398.7l9.6-8.9c2.4,2.8,2.2,7-0.4,9.5C235.4,401.8,231.3,401.5,228.9,398.7z"/>
<path id="XMLID_2979_" class="st10" d="M274,388l10.4,8.1c-2.2,3-6.2,3.6-9.1,1.3C272.4,395.2,271.9,391,274,388z"/>
<path class="st14" d="M191.1,433.1c4.5-1.1,7.9,3,7.9,3s3.5-2.3,5.7-0.1c2.2,2.2,2.7,5.2,2.7,5.2s3.6-2.5,6.1,0.4
	c2.5,2.9,3.2,6.2,3.2,6.2s3.2-1.2,6,3c2,3,5.7,7.8,10.5,9.8c4.3,1.8,2.2,4.5-2.5,5.7c-4.7,1.2-41.5-31.1-41.5-31.1L191.1,433.1z"/>
<path class="st10" d="M150.5,602.7c1.7,1.7,37.2-16.5,39.8-38.8C180.9,561.7,148.8,583.8,150.5,602.7z"/>
<path class="st15" d="M157,480.2c-27.6,10.2-34.3,32.4-31.7,55.3c2,17,12.5,34.9,34,70.2c21.5,35.1,39.4,23.7,39.4,23.7l5.9-26.2
	l-31-77C173.7,526.1,172.1,492.3,157,480.2z"/>
<path class="st14" d="M187.2,559.7l-4.5-11.4c0,0-16.4,30.9-8.7,51L187.2,559.7z"/>
<path class="st17" d="M157.4,478c-22.5,7.9-30.5,17.1-34,36.8c-2.3,13.3-0.6,22.9,5.4,41.3c6.2,19.1,22.2,46.7,22.2,46.7
	c0.2-11.1,21.5-36.2,39.8-38.8c0,0-10.6-32-13.7-40.7C173.9,514.5,167,488.3,157.4,478z"/>
<path class="st15" d="M229.2,499.6c3.1-8.5,5.6-15.9,4.5-20.5c-1.4-6.3-4.4-7.3-4.4-7.3c1-0.3,2.5-0.6,3.3-1.2c1.3-1,1.7-1.9,1.8-3
	c0.1-1.7-3.3-2.7-4.7-3.6c-4.6-3.1-6.1-5.3-9.4-9.5c-0.5-0.6-2-2.5-4-2.6c-1-3.1-2.1-5.9-4.2-6.9c-1.3-0.6-2.7-0.9-4.7-0.3
	c0,0-1.2-3.9-3.8-5.1c-2.3-1.1-4.8,0-4.8,0s-2-2.7-3.5-3.9c-2.4-1.8-5.9-1.4-8.3,0.3c-3.2,2.2-4.4,5.6-5.9,9c-1.4,3-2.4,6.2-3.2,9.4
	c-0.8,3-1.4,6-1.8,9.1c-0.2,1.1-0.4,4.2,0.2,5.3c1.4,3.8,21.4,24.7,21.4,24.7c-1.7,12.3-15.6,65.5-21.5,83.7
	c-5.7,17.4-0.4,45.8,7.9,50.4c8.2,4.6,19,5.4,32.6-14.6C231.8,590.7,221.5,520.7,229.2,499.6z"/>
<path class="st14" d="M198.8,629.3c5.2-1.8,11-6.5,17.5-15.8c-3-0.7-6-1.1-8.9-1.5c-5.1-0.6-9.4-2.9-14.2-4.3
	c-0.3-0.1-0.6-0.1-0.8,0c-0.2,0.1-0.3,0.4-0.4,0.6c-0.7,2.3-0.3,5,1.1,7c1.1,1.6,2.7,2.8,4.3,3.9c0.5,0.4,1.4,0.7,3.3,1.8
	c0.8,0.5,1.5,1.1,1.3,1.8c-0.5,2.1-7.6,2.1-8.9,2.1c-4.4,0-8.7-0.9-12.8-2.2c-1-0.3-2-0.7-2.9-1.2c-0.9-0.5-1.6-1.3-2.4-2
	c-1-1-1.9-2-2.7-3.1c-2.2-2.8-4-5.8-6.7-8.1c-1.7-1.5-4-2.5-6.2-2.7c0,0,0.1,0.1,0.1,0.1C180.9,640.8,198.8,629.3,198.8,629.3z"/>
<path class="st19" d="M229.7,471.3c-2,0.5-4.2,0.2-5.8-0.1c-5-0.9-6.7-3.9-6.7-3.9s-0.3-8-1.1-7.4c-0.9,0.7-0.6,6.9-0.6,6.9
	s-1.7-0.8-3.2-2.6c-1.7,1.1,0.6,2.9,3,4.4c1,0.7,2.5,1.9,4.3,2.7c2.2,0.9,4.6,1.3,7.6,1.4c2.1,0.1,3.1,0.3,4.4,1.7
	C230.7,473.2,229.7,471.3,229.7,471.3z"/>
<path class="st19" d="M217.8,452.1c-0.3,0-0.6,0.3-0.9,0.3c-2.6-0.4-5.4,0.4-9.2,2.8c-4.1,2.7-8.3,8.7-8.3,8.7s0.6-3.8,5.6-8.2
	S215,450.3,217.8,452.1z"/>
<path class="st19" d="M207.7,444.2l-0.1,0.9c-9,3-13.6,9.2-16.9,13.9c0,0,0.3-4.1,6.9-9.8C202.6,444.9,207.7,444.2,207.7,444.2z"/>
<path class="st19" d="M197.7,438c-1.6,0.4-3.9,2.5-6.6,5.5c-3.3,3.8-5.9,8.3-6.6,10.7c1.8-2.8,7.8-12,15.1-14.4
	C199.6,439.8,198.5,439.5,197.7,438z"/>
<path class="st19" d="M191,485.9c6.5,6,14,8.1,18.4,8.4c0,0-5.1,1-11.6-0.8L191,485.9z"/>
<g>
	<path class="st19" d="M225.4,570.4c0.3-8.4,0.4-16.9,0.5-25.3c0-8.4,0-16.9,0.3-25.3c0.2-4.2,0.4-8.4,1.1-12.6
		c0.3-2.1,0.7-4.2,1.3-6.2c0.6-2,1.4-4,2.1-6c0.7-2,1.3-4,1.9-6c0.5-2,1-4.1,1.2-6.2c0.1-1,0.1-2.1-0.1-3.1c-0.2-1-0.5-2-0.8-3
		c-0.4-1-0.8-1.9-1.4-2.8c-0.6-0.8-1.3-1.6-2.2-2l0,0c-0.1,0-0.1-0.1-0.1-0.2c0,0,0.1-0.1,0.1-0.1c1.3-0.3,2.6-0.6,3.6-1.4
		c0.5-0.4,0.9-0.9,1.2-1.5c0.1-0.3,0.2-0.6,0.2-0.9c0.1-0.3,0-0.6-0.1-0.8c-0.3-0.5-0.9-0.9-1.4-1.2c-0.6-0.3-1.2-0.6-1.7-0.9
		c-0.6-0.3-1.2-0.6-1.7-1c-0.5-0.4-1.1-0.8-1.6-1.2c-1.1-0.8-2.1-1.7-3-2.7c-0.9-1-1.8-2-2.6-3l-1.2-1.6c-0.4-0.5-0.8-1.1-1.2-1.5
		c-0.9-0.9-2-1.8-3.2-1.8c-0.1,0-0.2-0.1-0.2-0.1c-0.3-1-0.7-2.1-1.1-3c-0.4-1-0.9-1.9-1.6-2.7c-0.4-0.4-0.8-0.7-1.2-1
		c-0.5-0.2-1-0.4-1.5-0.5c-1-0.2-2.1-0.1-3.1,0.2c-0.1,0-0.2,0-0.3-0.1l0,0c-0.3-0.9-0.7-1.7-1.2-2.5c-0.5-0.8-1.1-1.5-1.9-2
		c-0.2-0.1-0.4-0.2-0.6-0.3c-0.2-0.1-0.4-0.2-0.6-0.3c-0.4-0.1-0.9-0.2-1.3-0.2c-0.9,0-1.9,0.1-2.7,0.5l0,0c-0.1,0-0.2,0-0.2-0.1
		c-0.6-0.8-1.3-1.6-1.9-2.4c-0.7-0.8-1.4-1.5-2.3-2c-0.9-0.5-1.9-0.7-2.9-0.6c-1,0-2,0.2-2.9,0.6c-1.9,0.8-3.4,2.3-4.5,4
		c-1.1,1.7-1.9,3.6-2.7,5.5c-1.7,3.7-2.9,7.7-3.8,11.7c-0.5,2-0.9,4-1.2,6.1c-0.2,1-0.3,2-0.3,3.1c0,1,0,2.1,0.4,3l0,0
		c0.2,0.6,0.6,1.2,1,1.7c0.4,0.6,0.8,1.1,1.2,1.6c0.8,1.1,1.7,2.1,2.6,3.2c1.8,2.1,3.6,4.1,5.4,6.2c3.7,4.1,7.4,8,11.2,12
		c0,0,0,0.1,0,0.1c-0.6,4-1.5,7.9-2.4,11.7c-0.9,3.9-1.9,7.8-2.8,11.6l-5.9,23.2l5.8-23.2c0.9-3.9,1.9-7.8,2.8-11.6
		c0.9-3.9,1.8-7.8,2.4-11.7l0,0.1c-3.8-3.9-7.5-7.9-11.2-12c-1.8-2-3.7-4.1-5.4-6.1c-0.9-1-1.8-2.1-2.6-3.2
		c-0.4-0.5-0.8-1.1-1.2-1.6c-0.4-0.6-0.8-1.1-1.1-1.8l0,0c-0.5-1-0.4-2.1-0.4-3.1c0-1,0.1-2.1,0.3-3.1c0.3-2,0.7-4.1,1.2-6.1
		c0.9-4,2.1-8,3.8-11.8c0.8-1.9,1.6-3.8,2.7-5.6c1.1-1.8,2.7-3.3,4.7-4.1c1-0.4,2-0.6,3.1-0.7c1.1,0,2.1,0.2,3.1,0.7
		c1,0.5,1.7,1.3,2.4,2c0.7,0.8,1.3,1.6,2,2.4l-0.3-0.1c0.9-0.4,1.9-0.5,2.9-0.5c0.5,0,1,0.1,1.5,0.3c0.3,0.1,0.4,0.2,0.7,0.3
		c0.2,0.1,0.4,0.2,0.6,0.4c0.8,0.6,1.5,1.3,2,2.2c0.5,0.8,0.9,1.7,1.2,2.6l-0.3-0.1c1.1-0.3,2.2-0.5,3.3-0.2
		c0.6,0.1,1.1,0.3,1.6,0.6c0.5,0.3,1,0.6,1.3,1.1c0.8,0.8,1.3,1.8,1.7,2.8c0.4,1,0.8,2,1.1,3.1l-0.2-0.1c0.7,0,1.4,0.3,2,0.6
		c0.6,0.4,1.1,0.8,1.6,1.3c0.5,0.5,0.8,1,1.3,1.5l1.2,1.6c0.8,1,1.7,2,2.6,3c0.9,0.9,1.9,1.8,2.9,2.6c0.5,0.4,1,0.8,1.6,1.2
		c0.5,0.4,1.1,0.7,1.7,1c0.6,0.3,1.2,0.6,1.8,0.9c0.6,0.3,1.2,0.7,1.5,1.4c0.2,0.3,0.2,0.8,0.1,1.1c0,0.3-0.1,0.7-0.3,1
		c-0.3,0.6-0.7,1.2-1.3,1.6c-0.5,0.5-1.2,0.8-1.8,1c-0.6,0.2-1.3,0.4-1.9,0.5l0-0.3c1,0.5,1.8,1.3,2.4,2.2c0.6,0.9,1.1,1.9,1.4,2.9
		c0.4,1,0.7,2,0.8,3.1c0.1,1.1,0.2,2.1,0.1,3.2c-0.2,2.1-0.7,4.2-1.2,6.2c-0.6,2-1.2,4-1.9,6c-0.7,2-1.5,4-2.1,6
		c-0.6,2-1,4.1-1.3,6.2c-0.6,4.2-0.9,8.4-1.1,12.6c-0.3,8.4-0.3,16.9-0.4,25.3C225.9,553.6,225.8,562,225.4,570.4z"/>
</g>
<path class="st15" d="M252.1,652.7c-5.8,2.2-13.2,6.9-21,9.1c-7.8,2.1-15.4,2.7-25,2.6c-4.4-0.1-8.8-0.4-13.2-0.9
	c-4.6-0.6-8.5-3-12.6-5c-4.1-2-8.5-4.4-10.1-8.7c-0.8-2.2-0.7-4.8-2-6.8c-0.8-1.2-2-2.2-2.8-3.3c-1.4-2-1.8-4.4-2.1-6.7
	c-0.4-2.6-1.1-5-2-7.4c-1.9-5.3-4.1-10.6-6.6-15.6c-0.1-0.2-0.2-0.4-0.1-0.6c0.1-0.2,0.3-0.3,0.5-0.4c3.2-1.4,7.1-0.1,9.7,2.2
	c2.7,2.3,4.5,5.3,6.7,8.1c0.9,1.1,1.8,2.1,2.7,3.1c0.7,0.8,1.5,1.5,2.4,2c0.9,0.5,1.9,0.9,2.9,1.2c4.1,1.3,8.5,2.2,12.8,2.2
	c1.3,0,8.5,0,8.9-2.1c0.1-0.7-0.5-1.3-1.3-1.8c-1.9-1.1-2.8-1.5-3.3-1.8c-1.6-1.1-3.2-2.3-4.3-3.9c-1.4-2-1.8-4.7-1.1-7
	c0.1-0.2,0.2-0.5,0.4-0.6c0.2-0.1,0.5-0.1,0.8,0c4.8,1.5,9.2,3.7,14.2,4.3c4.9,0.6,10,1.5,14.6,3c3,1,6.9,2.8,10,3.4
	c3.1,0.7,6.5,0.9,11.7-2c8.2-4.6,26.3-19.1,36-25.9l36.6-21.5c0,0,2.5,7.4,5.1,16.4c4.8,17.2,4.3,20.5-3.4,27.9
	C304.6,628.1,280.2,642.2,252.1,652.7z"/>
<g>
	<path class="st19" d="M155.2,608.8c0,0,0.1,0,0.3-0.1c0.2-0.1,0.5-0.2,0.8-0.3c0.7-0.2,1.9-0.3,3.3-0.1c1.4,0.3,3.1,0.9,4.7,2.1
		c1.6,1.2,3.2,2.9,4.6,4.9c0.7,1,1.5,2,2.3,3.1c0.8,1,1.7,2,2.7,3.1c0.9,1.1,1.9,2.1,3.2,2.8c1.3,0.7,2.8,1.1,4.2,1.5
		c2.9,0.8,6.1,1.4,9.3,1.6c1.6,0.1,3.2,0.1,4.8,0c1.6-0.1,3.3-0.3,4.7-0.9c0.4-0.2,0.7-0.4,0.9-0.6c0.1-0.1,0.1-0.1,0.1-0.2
		c0-0.1,0.1-0.1,0.1-0.2c0-0.1,0-0.3-0.1-0.5c-0.4-0.6-1.2-1-1.8-1.4c-0.7-0.4-1.4-0.8-2.1-1.2c-0.7-0.4-1.4-0.9-2-1.4
		c-1.3-1-2.5-2.1-3.2-3.6c-0.8-1.4-1.1-3.1-0.9-4.6c0-0.4,0.1-0.8,0.2-1.2c0.1-0.4,0.1-0.7,0.4-1.1c0.1-0.2,0.4-0.3,0.6-0.3
		c0.2,0,0.4,0.1,0.6,0.1c0.4,0.1,0.7,0.2,1.1,0.3c1.4,0.5,2.8,1,4.1,1.5c2.6,1,5.1,1.9,7.6,2.3c1.2,0.2,2.4,0.3,3.5,0.5
		c1.1,0.2,2.2,0.3,3.1,0.5c2,0.4,3.7,0.7,5.1,1.1c1.4,0.4,2.5,0.7,3.2,0.9c0.7,0.2,1.1,0.4,1.1,0.4s-0.4-0.1-1.1-0.3
		c-0.7-0.2-1.8-0.5-3.2-0.9c-1.4-0.3-3.1-0.7-5.1-1c-2-0.3-4.2-0.6-6.6-0.9c-2.4-0.4-5-1.3-7.6-2.3c-1.3-0.5-2.7-1-4.1-1.4
		c-0.4-0.1-0.7-0.2-1.1-0.3c-0.4-0.1-0.7-0.2-0.9,0c-0.2,0.2-0.2,0.7-0.3,1c-0.1,0.4-0.1,0.7-0.2,1.1c-0.1,1.5,0.2,3.1,0.9,4.4
		c0.7,1.4,1.9,2.5,3.2,3.4c0.6,0.5,1.3,1,2,1.4c0.7,0.4,1.4,0.8,2.2,1.2c0.7,0.4,1.5,0.7,2,1.5c0.1,0.2,0.2,0.4,0.2,0.7
		c0,0.2-0.1,0.5-0.3,0.7c-0.3,0.4-0.7,0.6-1.1,0.8c-1.6,0.7-3.2,0.8-4.9,0.9c-1.6,0.1-3.3,0.1-4.9,0c-3.2-0.2-6.4-0.8-9.3-1.7
		c-1.5-0.4-2.9-0.8-4.3-1.6c-1.3-0.8-2.3-1.8-3.3-2.9c-0.9-1.1-1.8-2.1-2.7-3.1c-0.8-1.1-1.5-2.1-2.3-3.1c-1.5-2-2.9-3.7-4.5-4.9
		c-1.6-1.2-3.2-1.8-4.6-2.1c-1.4-0.3-2.5-0.1-3.3,0c-0.4,0.1-0.7,0.2-0.8,0.3C155.3,608.8,155.2,608.8,155.2,608.8z"/>
</g>
<path class="st14" d="M277.9,594.1c6.5-5,20.1-9.9,29.9-7.3c-5.7-6-22.8-2.3-29.9,1.5V594.1z"/>
<path class="st13" d="M221.7,839.1c1.7,10.4-9.5,18.2-18.7,12.9L42.3,759.2c-8.5-4.9-12.8-14.6-11.1-24l34.2-80.7l-20.4,0L-11,814.8
	c-1.2,3.4,2.5,6.5,5.7,4.7c0.7-0.4,1.3-1.1,1.6-1.8l15.2-36c5.6-6.1,14.9-7.9,22.6-3.5l178.7,103.2c11.1,6.4,19.1,18,21.2,30.6
	L221.7,839.1z"/>
<path class="st12" d="M221.7,839.1c1.7,10.4-9.5,18.2-18.7,12.9L42.3,759.2c-8.5-4.9-12.8-14.6-11.1-24l34.2-80.7l-20.4,0L-11,814.8
	c-1.2,3.4,2.5,6.5,5.7,4.7c0.7-0.4,1.3-1.1,1.6-1.8l15.2-36c5.6-6.1,14.9-7.9,22.6-3.5l178.7,103.2c11.1,6.4,19.1,18,21.2,30.6
	L221.7,839.1z"/>
<path class="st13" d="M251.7,865.6c-5.8,3.4-12,0.2-12.5-6.5v0c0,0,0,0,0,0l-0.9-8.9l0.3,2.6l-7.9-81.5
	c-1.2-14.3-8.2-27.4-19.5-36.3L53.8,610l-3.1-17.3c-23,18.1-22,54.5,3.8,70.7l134.3,84.9c12.5,7.9,21,20.7,23.4,35.3l30.8,181.9
	c0.4,2.2,2.8,3.3,4.7,2.2c1.1-0.6,1.7-1.8,1.6-3l-4.5-46.2c-1.1-13.7,3.7-27.6,15.7-34.5"/>
<path class="st12" d="M251.7,865.6c-5.8,3.4-12,0.2-12.5-6.5v0c0,0,0,0,0,0l-0.9-8.9l0.3,2.6l-7.9-81.5
	c-1.2-14.3-8.2-27.4-19.5-36.3L53.8,610l-3.1-17.3c-23,18.1-22,54.5,3.8,70.7l134.3,84.9c12.5,7.9,21,20.7,23.4,35.3l30.8,181.9
	c0.4,2.2,2.8,3.3,4.7,2.2c1.1-0.6,1.7-1.8,1.6-3l-4.5-46.2c-1.1-13.7,3.7-27.6,15.7-34.5"/>
</svg>
