<?xml version="1.0" encoding="utf-8"?>
<!-- Generator: Adobe Illustrator 19.0.0, SVG Export Plug-In . SVG Version: 6.00 Build 0)  -->
<svg version="1.1" id="Capa_1" xmlns="http://www.w3.org/2000/svg" xmlns:xlink="http://www.w3.org/1999/xlink" x="0px" y="0px"
	 viewBox="-254 252 1122 856" style="enable-background:new -254 252 1122 856;" xml:space="preserve">
<style type="text/css">
	.st0{opacity:0.1;fill:#6C63FF;enable-background:new    ;}
	.st1{opacity:0.1;}
	.st2{fill:#6C63FF;}
	.st3{fill:url(#SVGID_1_);}
	.st4{fill:#4C4BA0;}
	.st5{fill:#F6F7F9;}
	.st6{opacity:0.2;}
	.st7{fill:#DCE0ED;}
	.st8{fill:#676BB1;}
	.st9{fill:url(#SVGID_2_);}
	.st10{fill:#D4933C;}
	.st11{opacity:0.1;enable-background:new    ;}
	.st12{fill:#FBBEBE;}
	.st13{fill:#F3BD41;}
	.st14{opacity:5.000000e-002;enable-background:new    ;}
	.st15{fill:#383993;}
	.st16{fill:#FFD037;}
	.st17{fill:#A8A8A8;}
	.st18{opacity:0.2;enable-background:new    ;}
</style>
<g>
	<path class="st0" d="M623.9,289.5c31.7-1.3,64.8-2.2,93.4,12.9c28.6,15.1,50.8,51.5,41.2,85.1c-3.1,10.9-9.2,20.5-14.4,30.4
		c-25.7,49.8-26.9,114.1-3.1,165c18.4,39.2,49.5,69,71.9,105.5s35.2,87.1,13.1,123.9c-15.1,25.2-43.1,37.4-70.3,40.4
		s-54.4-1.7-81.7-2.9c-53.1-2.3-105.9,8.8-154.5,32.4c-67,32.6-124.7,88.2-195.2,109.7c-8.5,2.6-17.3,4.7-26,2.9
		c-15.4-3.1-26.5-17.2-38.5-28.3c-38.4-35.2-91.5-41.8-141.3-43.4c-49.8-1.6-101.7-0.4-146.7-24.1c-39.3-20.7-69.6-59.2-88.4-102.7
		s-27-91.9-30.1-140c-1.8-28.7-1.8-58.2,7.5-85.1c10.4-30.2,31.5-54.2,53.6-75.2c23.1-21.9,48.3-41.8,76.8-53.7
		c34.1-14.1,71.1-16.2,107.4-19.5c74.4-6.9,148.2-20,220.8-39.3c68.9-18.3,144.6-38.2,207.3-75.4C558.3,289.5,588.3,291,623.9,289.5
		z"/>
	<g class="st1">
		<path class="st2" d="M-18.4,874.2c0,0-3.5-49.6-31.5-76.7c-11.8-11.3-19.6-26.1-22.3-42.2c-1.2-7.6-1.7-15.4-1.5-23.1"/>
		<path class="st2" d="M-91.1,715.1c2,5.5,17.9,17.7,17.9,17.7s4-19.6,1.9-25.1c-2-5.5-8.1-8.3-13.6-6.2
			C-90.4,703.5-93.2,709.6-91.1,715.1z"/>
		<path class="st2" d="M-96.2,751.5c4.7,3.5,24.6,5.1,24.6,5.1s-7.3-18.6-12-22.1c-4.8-3.4-11.4-2.2-14.8,2.6
			C-101.6,741.7-100.6,748.1-96.2,751.5L-96.2,751.5z"/>
		<path class="st2" d="M-76.1,803.1c5.8,0.6,23.8-8,23.8-8s-15.7-12.4-21.5-13c-5.8-0.3-10.8,4.1-11.1,10
			C-85.2,797.5-81.4,802.2-76.1,803.1z"/>
		<path class="st2" d="M-52.1,838.7c5.6,1.6,24.8-3.9,24.8-3.9s-13.4-14.8-19-16.5c-5.6-1.8-11.5,1.3-13.3,6.9
			c-1.8,5.6,1.3,11.5,6.9,13.3C-52.5,838.6-52.3,838.7-52.1,838.7L-52.1,838.7z"/>
		<path class="st2" d="M-50.4,749.9c-2.5,5.3-19.3,16.1-19.3,16.1s-2.3-19.8,0.2-25.1c2.7-5.2,9-7.3,14.2-4.6
			C-50.2,738.8-48.1,744.8-50.4,749.9z"/>
		<path class="st2" d="M-22.8,791.9c-4,4.3-23.3,9.6-23.3,9.6s3.7-19.6,7.7-23.9c4-4.3,10.7-4.5,15-0.5
			C-19.1,781-18.9,787.6-22.8,791.9z"/>
		<path class="st2" d="M-1.7,836.4c-3.2,4.9-21.3,13.3-21.3,13.3s0.4-20,3.5-24.9c3.3-4.8,9.9-6,14.7-2.7
			C-0.1,825.3,1.3,831.6-1.7,836.4L-1.7,836.4z"/>
		<path class="st2" d="M-91.1,715.1c2,5.5,17.9,17.7,17.9,17.7s4-19.6,1.9-25.1c-2-5.5-8.1-8.3-13.6-6.2
			C-90.4,703.5-93.2,709.6-91.1,715.1z"/>
		<path class="st2" d="M-96.2,751.5c4.7,3.5,24.6,5.1,24.6,5.1s-7.3-18.6-12-22.1c-4.8-3.4-11.4-2.2-14.8,2.6
			C-101.6,741.7-100.6,748.1-96.2,751.5L-96.2,751.5z"/>
		<path class="st2" d="M-76.1,803.1c5.8,0.6,23.8-8,23.8-8s-15.7-12.4-21.5-13c-5.8-0.3-10.8,4.1-11.1,10
			C-85.2,797.5-81.4,802.2-76.1,803.1z"/>
		<path class="st2" d="M-52.1,838.7c5.6,1.6,24.8-3.9,24.8-3.9s-13.4-14.8-19-16.5c-5.6-1.8-11.5,1.3-13.3,6.9
			c-1.8,5.6,1.3,11.5,6.9,13.3C-52.5,838.6-52.3,838.7-52.1,838.7L-52.1,838.7z"/>
		<path class="st2" d="M-50.4,749.9c-2.5,5.3-19.3,16.1-19.3,16.1s-2.3-19.8,0.2-25.1c2.7-5.2,9-7.3,14.2-4.6
			C-50.2,738.8-48.1,744.8-50.4,749.9z"/>
		<path class="st2" d="M-22.8,791.9c-4,4.3-23.3,9.6-23.3,9.6s3.7-19.6,7.7-23.9c4-4.3,10.7-4.5,15-0.5
			C-19.1,781-18.9,787.6-22.8,791.9z"/>
		<path class="st2" d="M-1.7,836.4c-3.2,4.9-21.3,13.3-21.3,13.3s0.4-20,3.5-24.9c3.3-4.8,9.9-6,14.7-2.7
			C-0.1,825.3,1.3,831.6-1.7,836.4L-1.7,836.4z"/>
	</g>
	<g class="st1">
		<path class="st2" d="M-28.2,686.4c0,0-3.5-49.6-31.5-76.7c-11.8-11.3-19.6-26.1-22.3-42.1c-1.2-7.6-1.7-15.4-1.5-23.1"/>
		<path class="st2" d="M-100.9,527.3c2,5.5,17.9,17.6,17.9,17.6s4-19.6,1.9-25.1c-2-5.5-8.1-8.3-13.6-6.2
			C-100.2,515.7-103,521.8-100.9,527.3z"/>
		<path class="st2" d="M-106,563.8c4.7,3.5,24.6,5.1,24.6,5.1s-7.3-18.6-12-22.1c-4.6-3.6-11.3-2.8-14.9,1.8s-2.8,11.3,1.8,14.9
			C-106.3,563.5-106.2,563.6-106,563.8z"/>
		<path class="st2" d="M-85.9,615.3c5.8,0.6,23.8-8,23.8-8s-15.7-12.4-21.5-13c-5.8-0.7-11.1,3.4-11.9,9.2
			c-0.8,5.8,3.4,11.1,9.2,11.9C-86.2,615.4-86,615.4-85.9,615.3L-85.9,615.3z"/>
		<path class="st2" d="M-61.9,650.9c5.6,1.6,24.8-3.9,24.8-3.9s-13.4-14.9-19-16.5c-5.6-1.5-11.5,1.8-13,7.4
			C-70.6,643.5-67.4,649.3-61.9,650.9L-61.9,650.9z"/>
		<path class="st2" d="M-60.2,562.1c-2.5,5.3-19.3,16.1-19.3,16.1s-2.3-19.9,0.2-25.1c2.4-5.3,8.7-7.7,14-5.3s7.7,8.7,5.3,14
			C-60,561.9-60.1,562-60.2,562.1L-60.2,562.1z"/>
		<path class="st2" d="M-32.6,604.1c-4,4.3-23.3,9.6-23.3,9.6s3.7-19.6,7.7-23.9c4.1-4.2,10.8-4.3,15-0.2
			C-29.2,593.5-28.9,599.9-32.6,604.1z"/>
		<path class="st2" d="M-11.5,648.6c-3.2,4.9-21.3,13.4-21.3,13.4s0.4-20,3.5-24.9c3-5,9.6-6.6,14.6-3.5c5,3,6.6,9.6,3.5,14.6
			C-11.2,648.3-11.4,648.4-11.5,648.6L-11.5,648.6z"/>
		<path class="st2" d="M-100.9,527.3c2,5.5,17.9,17.6,17.9,17.6s4-19.6,1.9-25.1c-2-5.5-8.1-8.3-13.6-6.2
			C-100.2,515.7-103,521.8-100.9,527.3z"/>
		<path class="st2" d="M-106,563.8c4.7,3.5,24.6,5.1,24.6,5.1s-7.3-18.6-12-22.1c-4.6-3.6-11.3-2.8-14.9,1.8s-2.8,11.3,1.8,14.9
			C-106.3,563.5-106.2,563.6-106,563.8z"/>
		<path class="st2" d="M-85.9,615.3c5.8,0.6,23.8-8,23.8-8s-15.7-12.4-21.5-13c-5.8-0.7-11.1,3.4-11.9,9.2
			c-0.8,5.8,3.4,11.1,9.2,11.9C-86.2,615.4-86,615.4-85.9,615.3L-85.9,615.3z"/>
		<path class="st2" d="M-61.9,650.9c5.6,1.6,24.8-3.9,24.8-3.9s-13.4-14.9-19-16.5c-5.6-1.5-11.5,1.8-13,7.4
			C-70.6,643.5-67.4,649.3-61.9,650.9L-61.9,650.9z"/>
		<path class="st2" d="M-60.2,562.1c-2.5,5.3-19.3,16.1-19.3,16.1s-2.3-19.9,0.2-25.1c2.4-5.3,8.7-7.7,14-5.3s7.7,8.7,5.3,14
			C-60,561.9-60.1,562-60.2,562.1L-60.2,562.1z"/>
		<path class="st2" d="M-32.6,604.1c-4,4.3-23.3,9.6-23.3,9.6s3.7-19.6,7.7-23.9c4.1-4.2,10.8-4.3,15-0.2
			C-29.2,593.5-28.9,599.9-32.6,604.1z"/>
		<path class="st2" d="M-11.5,648.6c-3.2,4.9-21.3,13.4-21.3,13.4s0.4-20,3.5-24.9c3-5,9.6-6.6,14.6-3.5c5,3,6.6,9.6,3.5,14.6
			C-11.2,648.3-11.4,648.4-11.5,648.6L-11.5,648.6z"/>
	</g>
	<g class="st1">
		<path class="st2" d="M437.3,751.4c0,0,42.7-25.5,54.3-62.5c4.8-15.6,14.5-29.2,27.6-38.8c6.3-4.5,13-8.4,20-11.7"/>
		<path class="st2" d="M546.7,614.9c-4,4.3-7.7,23.9-7.7,23.9s19.3-5.3,23.3-9.5c3.9-4.4,3.4-11.1-1-14.9
			C557,610.7,550.6,610.9,546.7,614.9L546.7,614.9z"/>
		<path class="st2" d="M511.8,626.8c-1,5.8,6.5,24.3,6.5,24.3s13.3-14.9,14.3-20.6c1.1-5.7-2.6-11.3-8.3-12.5
			c-5.7-1.1-11.3,2.6-12.5,8.3C511.9,626.5,511.9,626.7,511.8,626.8z"/>
		<path class="st2" d="M474.8,667.9c2,5.5,17.9,17.7,17.9,17.7s4-19.6,1.9-25.1c-1.9-5.5-7.9-8.5-13.4-6.6s-8.5,7.9-6.6,13.4
			C474.7,667.6,474.7,667.7,474.8,667.9L474.8,667.9z"/>
		<path class="st2" d="M453.8,705.4c1.1,5.8,14.6,20.5,14.6,20.5s7.3-18.6,6.2-24.4c-1.1-5.7-6.6-9.5-12.4-8.4
			C456.5,694.1,452.7,699.7,453.8,705.4L453.8,705.4L453.8,705.4z"/>
		<path class="st2" d="M533.9,667c-5.8,0.1-23.1-10-23.1-10s16.7-11,22.6-11.1c5.8,0,10.6,4.7,10.6,10.5
			C544.1,662.1,539.6,666.8,533.9,667L533.9,667z"/>
		<path class="st2" d="M508.8,710.5c-5.6-1.6-19-16.5-19-16.5s19.2-5.5,24.8-3.9c5.6,1.7,8.7,7.7,6.9,13.3
			C519.9,708.8,514.2,711.9,508.8,710.5L508.8,710.5z"/>
		<path class="st2" d="M478.6,749.4c-5.8-0.6-21.5-13-21.5-13s18-8.7,23.8-8c5.8,0.3,10.3,5.3,10,11.1s-5.3,10.3-11.1,10
			C479.3,749.5,478.9,749.4,478.6,749.4z"/>
		<path class="st2" d="M546.7,614.9c-4,4.3-7.7,23.9-7.7,23.9s19.3-5.3,23.3-9.5c3.9-4.4,3.4-11.1-1-14.9
			C557,610.7,550.6,610.9,546.7,614.9L546.7,614.9z"/>
		<path class="st2" d="M511.8,626.8c-1,5.8,6.5,24.3,6.5,24.3s13.3-14.9,14.3-20.6c1.1-5.7-2.6-11.3-8.3-12.5
			c-5.7-1.1-11.3,2.6-12.5,8.3C511.9,626.5,511.9,626.7,511.8,626.8z"/>
		<path class="st2" d="M474.8,667.9c2,5.5,17.9,17.7,17.9,17.7s4-19.6,1.9-25.1c-1.9-5.5-7.9-8.5-13.4-6.6s-8.5,7.9-6.6,13.4
			C474.7,667.6,474.7,667.7,474.8,667.9L474.8,667.9z"/>
		<path class="st2" d="M453.8,705.4c1.1,5.8,14.6,20.5,14.6,20.5s7.3-18.6,6.2-24.4c-1.1-5.7-6.6-9.5-12.4-8.4
			C456.5,694.1,452.7,699.7,453.8,705.4L453.8,705.4L453.8,705.4z"/>
		<path class="st2" d="M533.9,667c-5.8,0.1-23.1-10-23.1-10s16.7-11,22.6-11.1c5.8,0,10.6,4.7,10.6,10.5
			C544.1,662.1,539.6,666.8,533.9,667L533.9,667z"/>
		<path class="st2" d="M508.8,710.5c-5.6-1.6-19-16.5-19-16.5s19.2-5.5,24.8-3.9c5.6,1.7,8.7,7.7,6.9,13.3
			C519.9,708.8,514.2,711.9,508.8,710.5L508.8,710.5z"/>
		<path class="st2" d="M478.6,749.4c-5.8-0.6-21.5-13-21.5-13s18-8.7,23.8-8c5.8,0.3,10.3,5.3,10,11.1s-5.3,10.3-11.1,10
			C479.3,749.5,478.9,749.4,478.6,749.4z"/>
	</g>
	<path class="st0" d="M-48.3,1024.8c-7.9,4.8-17.6,1.9-26.6,2.2c-1.2,0-2.5,0.2-3.5,1s-1.5,2.2-2.2,3.3c-2.5,4.3-7.7,5.6-12.2,4.9
		s-8.7-3.1-12.9-4.9c-7.4-3.2-15.8-4.6-23.1-1.1c-0.6,0.4-1.4,0.6-2.1,0.6c-1.6-0.3-2.1-2.6-3.2-3.9c-2-2.4-6.4-1.7-7.3-4.8
		c-0.5-1.8,0.7-3.7,2-4.9c5-4.8,12.1-5.5,18.6-4.8s12.9,2.7,19.4,2.7c8.1,0,16-3.1,24.1-4.4c5.6-0.9,11.7-0.8,16.9,1.8
		C-54.6,1015.3-53.4,1021.6-48.3,1024.8z"/>
	
		<linearGradient id="SVGID_1_" gradientUnits="userSpaceOnUse" x1="570.9708" y1="-34.55" x2="570.9708" y2="694.1504" gradientTransform="matrix(-1 0 0 -1 803.2708 974.35)">
		<stop  offset="0" style="stop-color:#808080;stop-opacity:0.25"/>
		<stop  offset="0.54" style="stop-color:#808080;stop-opacity:0.12"/>
		<stop  offset="1" style="stop-color:#808080;stop-opacity:0.1"/>
	</linearGradient>
	<path class="st3" d="M0,280.2h464.6c23.5,0,42.6,19,42.6,42.5l0,0v643.7c0,23.5-19.1,42.5-42.6,42.5H0c-23.5,0-42.6-19-42.6-42.5
		l0,0V322.7C-42.6,299.2-23.5,280.1,0,280.2L0,280.2z"/>
	<path class="st4" d="M480.7,288.9H-16c-11,0-20,9-20,20v673.4c0,11,9,20,20,20h496.7c11,0,20-9,20-20V308.9
		C500.7,297.8,491.7,288.9,480.7,288.9z"/>
	<rect x="-8.8" y="356.4" class="st5" width="482.2" height="578.5"/>
	<circle class="st5" cx="234.5" cy="321.6" r="6.6"/>
	<circle class="st5" cx="464.5" cy="967.4" r="19.6"/>
	<g class="st6">
		<rect x="-8.8" y="356.4" class="st2" width="482.2" height="28.8"/>
	</g>
	<circle class="st5" cx="458.3" cy="370.8" r="6.1"/>
	<circle class="st5" cx="442.6" cy="370.8" r="6.1"/>
	<circle class="st5" cx="427" cy="370.8" r="6.1"/>
	<rect x="10" y="526.4" class="st7" width="449" height="1.5"/>
	<rect x="10" y="561.3" class="st7" width="449" height="1.5"/>
	<rect x="10" y="596.1" class="st7" width="449" height="1.5"/>
	<rect x="10" y="630.9" class="st7" width="449" height="1.5"/>
	<rect x="10" y="665.8" class="st7" width="449" height="1.5"/>
	<g class="st6">
		<polygon class="st2" points="10,667.3 459.5,667.3 459.5,598.8 418.3,619.1 375.6,624.9 338.2,613.6 293,578.5 270.3,565.4 
			253.7,562.2 237.8,563.1 211.7,576 176.2,598.6 148.3,602.2 126.2,594.6 79.3,556.2 55.4,547.7 30.4,551.5 10,563.3 		"/>
	</g>
	<path class="st8" d="M381.2,624.8c40.5,0,77.9-24.8,78.4-25.1l-1.1-1.7c-0.6,0.4-58.2,38.5-107.1,19.4c-17.8-7-30.5-17.8-42.8-28.3
		c-12.8-10.9-24.9-21.3-41.5-25.7c-18.9-5.1-39.6-0.5-55.4,12.4c-13.5,11-40.2,28.8-68.5,23.5c-14.4-2.7-26.6-13.2-39.4-24.4
		c-24.7-21.4-50.2-43.5-94.3-11.8l1.2,1.6c42.9-30.8,67.8-9.2,91.8,11.7c13.1,11.3,25.4,22,40.4,24.8c29.1,5.5,56.4-12.6,70.2-23.9
		c15.2-12.5,35.3-17,53.6-12c16.1,4.4,28,14.5,40.7,25.3c12.4,10.6,25.2,21.5,43.4,28.6C360.4,623.1,370.7,624.9,381.2,624.8z"/>
	<circle class="st8" cx="242.9" cy="562.1" r="11.1"/>
	<g class="st6">
		<path class="st2" d="M97.8,414.8h140.4c1.3,0,2.3,1,2.3,2.3l0,0V512c0,1.3-1,2.3-2.3,2.3c-0.6,0-1.2-0.3-1.7-0.7l-24.3-26
			c-0.4-0.5-1-0.7-1.7-0.7H97.8c-1.3,0-2.3-1-2.3-2.3l0,0V417C95.5,415.9,96.5,414.8,97.8,414.8z"/>
	</g>
	<rect x="128" y="432.4" class="st5" width="79.9" height="10"/>
	<rect x="185.9" y="454.6" class="st5" width="22" height="10"/>
	<g class="st6">
		<rect x="399.1" y="738.8" class="st2" width="22" height="10"/>
	</g>
	<g class="st6">
		<rect x="399.1" y="758.1" class="st2" width="22" height="10"/>
	</g>
	<g class="st6">
		<rect x="399.1" y="777.5" class="st2" width="22" height="10"/>
	</g>
	<g class="st6">
		<rect x="399.1" y="796.8" class="st2" width="22" height="10"/>
	</g>
	<g class="st6">
		<rect x="399.1" y="816.1" class="st2" width="22" height="10"/>
	</g>
	<g class="st6">
		<rect x="399.1" y="835.5" class="st2" width="22" height="10"/>
	</g>
	<g class="st6">
		<rect x="399.1" y="854.8" class="st2" width="22" height="10"/>
	</g>
	<g class="st6">
		<rect x="399.1" y="874.1" class="st2" width="22" height="10"/>
	</g>
	<g class="st6">
		<rect x="357.7" y="884.1" class="st2" width="22" height="10"/>
	</g>
	<g class="st6">
		<rect x="319.1" y="884.1" class="st2" width="22" height="10"/>
	</g>
	<g class="st6">
		<rect x="280.4" y="884.1" class="st2" width="22" height="10"/>
	</g>
	<g class="st6">
		<rect x="241.7" y="884.1" class="st2" width="22" height="10"/>
	</g>
	<g class="st6">
		<rect x="203.1" y="884.1" class="st2" width="22" height="10"/>
	</g>
	<g class="st6">
		<rect x="164.4" y="884.1" class="st2" width="22" height="10"/>
	</g>
	<g class="st6">
		<rect x="125.7" y="884.1" class="st2" width="22" height="10"/>
	</g>
	<g class="st6">
		<rect x="87.1" y="884.1" class="st2" width="22" height="10"/>
	</g>
	<g class="st6">
		<rect x="48.4" y="884.1" class="st2" width="22" height="10"/>
	</g>
	<rect x="128" y="454.6" class="st5" width="33.3" height="10"/>
	<rect x="357.7" y="811.5" class="st8" width="22" height="62.7"/>
	<rect x="319.1" y="782.5" class="st8" width="22" height="91.7"/>
	<rect x="280.4" y="758.1" class="st8" width="22" height="116"/>
	<rect x="241.7" y="770.8" class="st8" width="22" height="103.4"/>
	<rect x="203.1" y="748.8" class="st8" width="22" height="125.3"/>
	<g class="st6">
		<rect x="164.4" y="796.8" class="st2" width="22" height="77.3"/>
	</g>
	<g class="st6">
		<rect x="125.7" y="796.8" class="st2" width="22" height="77.3"/>
	</g>
	<g class="st6">
		<rect x="87.1" y="796.8" class="st2" width="22" height="77.3"/>
	</g>
	<g class="st6">
		<rect x="48.4" y="796.8" class="st2" width="22" height="77.3"/>
	</g>
	<path class="st0" d="M-54.4,988.5c30.7-14,74.6-16.4,114.8-14.2s79.7,8.1,120,8.2c50.3,0,98.9-9.2,148.7-12.9
		c34.5-2.6,72.1-2.3,104.5,5.4c28.4,6.7,38.9,20.2,58.7,30.2c1,0.1,2.1,0.2,3.1,0.3c29.2,3.3,57.7,11.5,87.1,11.5
		c23.7,0,46.8-5.3,70.3-7.2s49.2,0.1,67.2,12.6c4.7,3.3,9,8.1,7.1,12.9c-3.2,8.1-19,6.5-26.3,12.6c-4,3.4-5.7,9.4-11.5,10.1
		c-2.5,0.3-5.1-0.6-7.5-1.4c-26.3-9-56.8-5.2-83.5,3c-15.4,4.8-30.4,11-46.8,12.9c-16.4,1.9-35.1-1.7-44.2-12.8
		c-2.4-3-4.2-6.5-7.8-8.7c-3.6-2.2-8.3-2.5-12.8-2.7c-32.6-0.9-77.5-21-68.3-28.8c-24.9-0.5-50.3-1.9-74.9-1.5
		c-7.6,0.1-15.7,0.5-21.8,3s-9.1,6.4-13.3,9.8c-15.6,12.6-47.5,16.6-75.4,14.5s-53.5-9.2-79.8-14.6c-45.5-9.3-97.6-13.5-142.5-3.4
		c-4.1,0.9-8.5,2-12.9,1.6c-9.8-0.8-12.8-7.6-19.7-11.4c-12.4-7-39.4-5.1-44.9-14.3C-69.8,997.7-62.4,992.2-54.4,988.5z"/>
	
		<linearGradient id="SVGID_2_" gradientUnits="userSpaceOnUse" x1="1521.6552" y1="-72.4615" x2="1521.6552" y2="587.3924" gradientTransform="matrix(1 0 0 -1 -930.3163 974.35)">
		<stop  offset="0" style="stop-color:#808080;stop-opacity:0.25"/>
		<stop  offset="0.54" style="stop-color:#808080;stop-opacity:0.12"/>
		<stop  offset="1" style="stop-color:#808080;stop-opacity:0.1"/>
	</linearGradient>
	<path class="st9" d="M689.9,513.2c-23.8-13.7-32.8-17.1-32.8-17.1l-0.5-0.4c-2.6-2-4.7-4.6-6-7.6c0-0.5,0-1.1,0-1.6v0.2
		c0.4-7.2,5.5-13.8,10.4-19.6l12.5-14.7c1.4-1.5,2.5-3.2,3.2-5.1c0.3-1,0.4-2.1,0.3-3.1c0-0.4,0-0.9,0-1.3c-0.1-3.6-0.2-7.3-0.3-11
		c-0.1-3.2-0.9-7.2-4.1-7.9c-1.7-0.3-3.8,0.3-4.7-1.2c-0.3-0.6-0.4-1.3-0.2-1.9v0.1l0,0c0.6-2.5,1-5,1.2-7.5
		c0.1-1.3-0.1-2.6-0.5-3.8c-1.8-5.3-8.2-7.5-13.8-8.5s-11.9-1.9-15.5-6.3c-1.1-1.4-1.8-3-3.1-4.2c-1.6-1.4-3.6-2.4-5.8-2.8
		c-7-1.7-14.3-1.1-20.9,1.8c-2.7,1.2-5.5,2.9-8.4,2.7c-2.9-0.2-5.8-2.3-8.8-2.9c-4.9-0.8-9.7,2.8-12.1,7.1c-1.4,2.6-2.2,5.4-2.2,8.4
		c0,0.2,0,0.3,0,0.5l0,0c-0.1,3.2,1.1,6.2,3.2,8.5c2.1,2.2,5.3,3.7,6.2,6.6c0.4,1.2,0.3,2.5,0.6,3.7c0,0.1,0.1,0.3,0.1,0.4l-0.1,0.3
		c-5.1,6.5-7.9,14.6-7.8,22.9c0.1,16.5,10.9,31,26.6,35.9c0,0.4,0,0.8,0,1.1c0,4.5-1.3,9.2-5.2,12.6L567.7,511
		c0,0-20.3-2.4-27.6,27.3c-1.2,4.9-1.6,10-1.3,15c0.3,4.5-0.3,12.4-5.5,22.5c-8.3,16.3-6.4,53.7,10.6,57.4c16.1,3.5,22.4,2,23,1.9
		v0.6c-0.3,7-2.8,67.6-12.1,74.9c-2.6,2-2.1,3.4,0,4.3c0,0,0,0.4-0.1,1.1c-0.3,4.4-1.7,21.3-7.9,30.9c-7.2,11.1-6.4,75.2-6.4,75.2
		l-4.8,37.8c0,0,3,23.3,0,27.4c-2.7,3.6-6.3,90-7,108.7h-0.3c-3,0.2-5.7,1.8-7.3,4.4c-4,6.5-17.9,18.4-17.9,18.4
		c-3,4.3-14.2,8.4-20.1,10.3c-0.8,0.3-1.6,0.6-2.3,1c-2.2,1.2-4,3.1-5.1,5.3c-0.8,1.4-1,3-0.5,4.5c1.5,3.7,32.9,6.3,40.9,2.6
		c6.3-2.9,31-6.8,41.3-8.3c3.8-0.5,6.9-3.5,7.3-7.3c0.2-1.3-0.2-2.6-1-3.7l0,0c-2-2.4-3-9.1-3.4-13.4c0.8-0.3,1.6-0.8,2.3-1.4
		c-0.8-13.5,1.1-27,5.7-39.6c7.6-20,9.8-57.1,8-81.2c0,0,23.1-99.3,41.2-108.6l0,0c0.2,0.7,9,12,10.2,47c1.1,35.6,14,58.9,14,58.9
		s-5.7,60.4,0,83l-7.4,35.7c-0.5-0.5-0.9-0.8-0.9-0.8s0.2,1,0.5,2.6l-0.2,0.8l0.3,0.1c0.9,4.3,2.1,12.1,1.6,16.7
		c-0.3,2.6-1,6.2-1.5,9.6c-0.8,5.5-1,10.8,1.9,12c4.7,1.9,32.5,4.5,37.3-1.6c2.2-2.5,2.7-6.1,1.4-9.2c-0.3-0.8-0.8-1.6-1.4-2.3
		c0,0-7.4-12.1-5.3-20.6c0.4-1.7,0.1-3.5-0.9-4.9c0.3-4.2,2-23.5,6.4-39.9c4.7-17.8,14.7-56.9,7.4-82.6l0,0c-0.3-1-0.6-2-0.9-3
		c-4.2-14-5.7-28.8-4.2-43.3c-2.7-12.5-2.7-25.3,0-37.8c4.5-20.8,7.7-41.1,7.7-41.1s2.5-27.4,0.3-44.2l-0.2-1.1l1.2-0.3
		c0,0-6.4-28.5-8.7-46.7c-0.5-4.3-1.2-9.7-2-15.5c2.1-0.3,4.2-0.8,6.2-1.5c20.4-7.1,26.8-70.8,26.8-70.8V558
		C706.9,557.9,713.8,527,689.9,513.2z M537.7,1005.3c-0.6-0.3-1-0.5-1-0.5l0,0L537.7,1005.3z"/>
	<path class="st4" d="M677.6,881c8.9,25.5-1.5,66.8-6.3,85.3s-6.3,40.6-6.3,40.6c-18.8,3-32.5-0.8-32.5-0.8l7.8-38
		c-5.5-22.5,0-82.7,0-82.7s-12.5-23.3-13.7-58.7c-1.1-34.9-9.7-46.2-10-46.5l0,0c-17.7,9.2-40.3,108.2-40.3,108.2
		c1.8,24-0.4,60.9-7.8,80.9c-4.5,12.7-6.4,26.1-5.5,39.5c-2.6,2.2-6.2,2.5-10,1.9c-10.5-1.7-23.1-10.8-23.1-10.8s4-107.8,7-111.9
		c3-4.1,0-27.3,0-27.3l4.8-37.7c0,0-0.7-63.9,6.3-75c6.1-9.6,7.5-26.4,7.7-30.8c0-0.7,0.1-1.1,0.1-1.1l10.7-12.8
		c0,0,103.4-7.8,111.1,0c1.9,1.9,3.1,6.2,3.8,11.7c2.1,16.8-0.3,44.1-0.3,44.1s-3.1,20.3-7.5,41c-2.7,12.4-2.7,25.2,0,37.7
		C672.1,852.3,673.4,867,677.6,881z"/>
	<path class="st10" d="M671.1,1042.9c-4.6,6.1-31.8,3.5-36.4,1.6c-2.8-1.2-2.6-6.5-1.8-11.9c0.5-3.5,1.2-7,1.5-9.6
		c0.7-6.7-2.2-20.1-2.2-20.1s6.1,6.5,7.6,0c0.7-2.8,2.9-4.3,5.3-5c3.2-1,6.6-0.7,9.6,0.6c4.8,2.1,12.8,6.5,11.4,12.5
		c-2,8.5,5.2,20.5,5.2,20.5c0.6,0.7,1,1.5,1.3,2.3C673.8,1036.9,673.2,1040.4,671.1,1042.9z"/>
	<path class="st11" d="M671.1,1042.9c-4.6,6.1-31.8,3.5-36.4,1.6c-2.8-1.2-2.6-6.5-1.8-11.9c2.9,1.4,7.9,2.5,16.1,1.7
		c1.9-0.2,3.9-0.2,5.8-0.2c5.9,0.3,11.8,0.2,17.6-0.3C673.8,1036.9,673.2,1040.4,671.1,1042.9z"/>
	<path class="st11" d="M576.4,888.4c1.8,24-0.4,60.9-7.8,80.9c-4.5,12.7-6.4,26.1-5.5,39.5c-2.6,2.2-6.2,2.5-10,1.9
		c2.2-15.6,11.7-82.7,17.8-135.7c6.9-60.4,39.3-101.9,39.3-101.9l6.5,7.1C598.9,789.4,576.4,888.4,576.4,888.4z"/>
	<path class="st12" d="M660,500.3l-4.5,22.1l-22.1,37.1l-27.2-11.6c0,0-37-38.8-13.8-44.3c2.8-0.6,5.4-1.8,7.7-3.4
		c4.6-3.4,6-8.5,6-13.4c0-8.1-3.8-15.9-3.8-15.9l47.6-15c-2,6.3-3.1,12.7-3.4,19.3c-0.4,13,4.5,19.4,8.4,22.4
		C656.5,498.9,658.2,499.8,660,500.3z"/>
	<path class="st11" d="M650.1,456c-2,6.3-3.1,12.7-3.4,19.3c-0.9,1-1.8,2-2.8,2.9c-10,9.6-24.5,12.9-37.7,8.6
		c0-8.1-3.8-15.9-3.8-15.9L650.1,456z"/>
	<path class="st12" d="M655.5,449.9c0,20.8-16.9,37.7-37.7,37.6c-20.8,0-37.7-16.9-37.6-37.7c0-20.8,16.9-37.7,37.7-37.6l0,0
		c20.7-0.1,37.6,16.7,37.6,37.4C655.5,449.7,655.5,449.8,655.5,449.9z"/>
	<path class="st11" d="M660,500.3l-4.5,22.1l-22.1,37.1l-27.2-11.6c0,0-37-38.8-13.8-44.3c2.8-0.6,5.4-1.8,7.7-3.4
		c-4.2,11.5,13.1,35.6,13.1,35.6c2,3,6.7,1.1,6.7,1.1c11.2-1.7,31.7-33.8,35.1-39.1C656.5,498.9,658.2,499.8,660,500.3z"/>
	<path class="st11" d="M681.4,715.1c-6.6,1.5-42.8,9.5-56.6,7.5c-15.1-2.2-44.6-3.7-44.6-3.7s-18.7,1-24.5-1.6
		c0-0.7,0.1-1.1,0.1-1.1l10.7-12.8c0,0,103.4-7.8,111.2,0C679.5,705.3,680.7,709.6,681.4,715.1z"/>
	<path class="st13" d="M613.3,536.9c0,0-19.5-27-12.1-37.5l-32.9,13.5c0,0-19.8-2.4-27,27.2c-1.1,4.9-1.6,10-1.2,15
		c0.3,4.5-0.3,12.3-5.4,22.5c-8.1,16.3-6.3,53.5,10.3,57.2s22.5,1.8,22.5,1.8s-2.2,67.6-11.8,75.3s24.5,5.9,24.5,5.9
		s29.4,1.5,44.6,3.7c15.2,2.2,57.6-7.8,57.6-7.8s-6.3-28.4-8.5-46.5s-7.4-56.6-7.4-56.6l37.7-51c0,0,6.6-30.8-16.6-44.5
		c-23.2-13.7-32-17-32-17s-23.3,38-35.5,39.9C620,538,615.4,539.8,613.3,536.9z"/>
	<path class="st11" d="M570.1,547.6c0,0-0.4,12.2,1.8,17c2.2,4.8,10.3,31.4,10.3,31.4h-18.5c0,0,10-10.7,9.2-15.9
		C572.1,574.9,570.1,547.6,570.1,547.6z"/>
	<path class="st12" d="M624.8,639.5c0,0-40.8-10-44.6-18.5s-14.3-27.5-14.3-27.5l4.3-5.8l19.8,15.6c0,0,23.6,18.8,34.7,20.7
		S624.8,639.5,624.8,639.5z"/>
	<path class="st14" d="M624.8,639.5c0,0-40.8-10-44.6-18.5s-14.3-27.5-14.3-27.5l4.3-5.8l19.8,15.6c0,0,23.6,18.8,34.7,20.7
		S624.8,639.5,624.8,639.5z"/>
	<path class="st12" d="M660,591.5v22.1h-3.6c-17.6,0-34.8,4.5-50.2,13l-6.7,3.7l-1.8,1l-11.5-25.8l10.9-9.5h0.5
		c2.6,0.3,14,1.2,18.8-0.4c4.6-1.5,10.2-6.5,23.7-3c6.6,1.7,12.3,9.1,18.7,6.8L660,591.5z"/>
	<path class="st11" d="M695.7,551.3l7.4,8.3v20.1c0,0-6.3,63.5-26.2,70.5s-55.5-4.1-55.5-4.1s-9.2-24.4-4.9-25.8
		c4.3-1.4,38-10.4,38-10.4s-0.5-37.3,6.9-48.3c0,0-4.8-34.7,11.8-35.4C689.8,525.5,695.7,551.3,695.7,551.3z"/>
	<path class="st13" d="M696.8,551.3l7.4,8.3v20.1c0,0-6.3,63.5-26.3,70.5s-55.5-4.1-55.5-4.1s-9.2-24.4-4.9-25.8
		c4.3-1.4,38-10.4,38-10.4s-0.5-37.3,6.9-48.3c0,0-4.8-34.7,11.8-35.4C690.8,525.4,696.8,551.3,696.8,551.3z"/>
	<path class="st11" d="M645.2,465.9c0.2-2.4,0.2-5-0.8-7.2s-3.5-3.9-5.9-3.4c-3.2,0.7-4.5,4.9-7.6,5.8c-2.6,0.8-5.5-1-6.7-3.5
		s-1.3-5.3-1.3-8c0-3.1,0-6.2,0-9.3c0-3.4-0.1-7-2.2-9.6c-2.6-3.3-8.6-4.7-12.7-4.6c-2.7,0-5.3,1.1-7.2,2.9
		c-2.2,1.8-4.7,3.2-7.6,2.7c-2.5-0.4-4.6-2.2-5.3-4.6V427c12.6-16.6,36.2-19.9,52.8-7.3s19.9,36.2,7.3,52.8
		c-1.2,1.6-2.6,3.1-4.1,4.5C644.6,473.4,645,469.7,645.2,465.9z"/>
	<path class="st15" d="M593.2,430.7c-2.5-0.4-4.6-2.2-5.3-4.6c-0.3-1.2-0.2-2.5-0.6-3.6c-0.9-2.9-4-4.4-6-6.6
		c-4.2-4.4-3.9-11.7-0.9-17c2.4-4.3,7-7.9,11.8-7.1c3,0.5,5.6,2.6,8.6,2.8s5.6-1.4,8.2-2.7c6.4-2.9,13.6-3.5,20.4-1.8
		c2.1,0.4,4,1.4,5.6,2.8c1.1,1.4,2.1,2.8,3,4.2c3.5,4.4,9.6,5.3,15.1,6.2c5.5,0.9,11.7,3.2,13.5,8.4c1.2,3.5,0,7.3-0.7,10.9
		c-0.2,0.7-0.2,1.5,0.1,2.3c0.9,1.4,3,0.8,4.6,1.2c3.1,0.6,3.9,4.7,4,7.8c0.1,3.6,0.2,7.3,0.3,10.9c0.4,3.4-0.9,6.8-3.5,9.1
		l-12.2,14.7c-5.4,6.5-11.2,14.1-10.1,22.5c-2.6,1.1-5.6-1.1-6.4-3.8c-0.8-2.7-0.2-5.6,0.4-8.3c1-4.8,1.6-9.6,1.9-14.4
		c0.2-2.4,0.2-5-0.8-7.2s-3.5-4-5.9-3.4c-3.2,0.7-4.5,4.9-7.6,5.8c-2.6,0.8-5.5-1-6.7-3.5s-1.3-5.3-1.3-8V439c0-3.4-0.1-7-2.2-9.6
		c-2.6-3.3-8.6-4.7-12.7-4.6c-2.7,0-5.3,1.1-7.2,2.9C598.6,429.9,596.1,431.2,593.2,430.7z"/>
	<path class="st11" d="M601.7,546.6l11.6,47.5C613.3,594.1,622.4,594.1,601.7,546.6z"/>
	<path class="st11" d="M641.2,538.7c0,0-15.1,24.8-9.2,50.4l2.8,0.2C634.8,589.3,629.8,577.5,641.2,538.7z"/>
	<path class="st11" d="M650.8,679c0,0,18.6-6.1,19.9,8.1C670.8,687.1,667.2,677.4,650.8,679z"/>
	<path class="st11" d="M597.1,597.1c0,0-3.7,25.9,3,36.2c0,0-13.5,5.5-32.5,4.4l-2.3-40.6H597.1z"/>
	<path class="st11" d="M599.6,630.3l-1.8,1l-11.5-25.8l10.7-9.6h0.5l0,0C597.5,597.2,594.5,619.4,599.6,630.3z"/>
	<path class="st13" d="M597.1,595.9c0,0-3.7,25.8,3,36.2c0,0-13.5,5.5-32.5,4.4l-12.9-40.6H597.1z"/>
	<path class="st10" d="M565.1,1027.2c-0.4,3.8-3.4,6.8-7.2,7.3c-10,1.5-34.2,5.3-40.3,8.2c-7.8,3.7-38.4,1.1-39.9-2.6
		c-0.4-1.5-0.2-3.1,0.5-4.4c1.1-2.3,2.8-4.1,5-5.3c0.7-0.4,1.4-0.7,2.2-1c5.8-1.9,16.7-6,19.6-10.3c0,0,13.6-11.9,17.5-18.3
		c1.5-2.6,4.1-4.2,7.1-4.4c3.2-0.2,6.8,1.5,8.3,8.6c0,0,17.7,10.1,22.5,1.2c0,0,0.7,13.6,3.7,17.3l0,0
		C565,1024.6,565.4,1025.9,565.1,1027.2z"/>
	<path class="st11" d="M565.1,1027.2c-0.4,3.8-3.4,6.8-7.2,7.3c-10,1.5-34.2,5.3-40.3,8.2c-7.8,3.7-38.4,1.1-39.9-2.6
		c-0.4-1.5-0.2-3.1,0.5-4.4c1.1-2.3,2.8-4.1,5-5.3c5,3.3,16.1,6.6,40.5,2.8c23.3-3.6,34.8-7.2,40.4-9.6l0,0
		C565,1024.6,565.3,1025.9,565.1,1027.2z"/>
	<g class="st1">
		<path d="M665.9,423.4v-0.2c0.5-2.8,1.3-5.6,1.1-8.4c-0.2,2.3-0.6,4.5-1.1,6.7C665.8,422.2,665.8,422.8,665.9,423.4z"/>
		<path d="M644.4,458c0.6,1.3,0.9,2.8,0.9,4.2c0.2-2-0.1-4-0.9-5.9c-1-2.2-3.5-3.9-5.8-3.4c-3.2,0.7-4.5,4.9-7.6,5.8
			c-2.6,0.8-5.5-1-6.7-3.5c-1.3-2.5-1.3-5.3-1.3-8c0-3.1,0-6.2,0-9.3c0-3.4-0.1-7-2.2-9.6c-2.6-3.3-8.6-4.7-12.7-4.6
			c-2.7,0-5.3,1.1-7.2,2.9c-2.2,1.8-4.7,3.2-7.6,2.7c-2.5-0.4-4.6-2.2-5.3-4.6c-0.3-1.2-0.2-2.5-0.6-3.6c-0.9-2.9-4-4.4-6-6.6
			c-1.9-2.1-3-4.9-3.1-7.8c-0.3,3.5,0.8,6.9,3.1,9.5c2.1,2.2,5.2,3.7,6,6.6c0.3,1.2,0.3,2.4,0.6,3.6c0.7,2.4,2.8,4.2,5.3,4.6
			c3,0.5,5.4-0.9,7.6-2.7c2-1.8,4.5-2.9,7.2-2.9c4-0.1,10.1,1.3,12.7,4.6c2.1,2.6,2.2,6.3,2.2,9.6c0,3.1,0,6.2,0,9.3
			c0,2.7,0,5.6,1.3,8s4.1,4.3,6.7,3.5c3.1-1,4.5-5.1,7.6-5.8C640.9,454,643.3,455.7,644.4,458z"/>
		<path d="M674.7,447.8c-0.7,1.9-1.7,3.6-3.1,5.1c-4.1,4.9-8.1,9.8-12.2,14.7c-5.1,6.2-10.6,13.3-10.2,21.2
			c0.4-7.2,5.4-13.8,10.2-19.5l12.2-14.6c1.4-1.5,2.5-3.2,3.1-5.1c0.3-1.3,0.4-2.7,0.3-4C675,446.2,674.9,447,674.7,447.8z"/>
		<path d="M642.9,486.2c-0.2-0.7-0.3-1.3-0.4-2c-0.1,1.2,0,2.5,0.4,3.6c0.8,2.7,3.9,4.9,6.5,3.7c-0.1-0.5-0.1-1.1-0.1-1.6
			C646.7,491,643.7,488.9,642.9,486.2z"/>
	</g>
	<path class="st11" d="M520.2,1004.1c0,0,3.9,6.8,17.8,0.8"/>
	<path class="st11" d="M638.4,1005.8c0,0,12.1,14.2,27.3,4.7"/>
	<path class="st11" d="M673.5,837.8c0,0-8.5,5.3-8.8,8.4s4.4-2.2,4.4-2.2L673.5,837.8z"/>
	<path class="st11" d="M676.9,878.6c-3,2.5-6.6,3.9-10.5,4.1c-6.4,0.3-5.8,8.6-1.7,6.1C668.9,886.3,676.9,878.6,676.9,878.6z"/>
	<path class="st11" d="M678.5,884c0,0-4.1,20.1-7.4,16.2"/>
	<path class="st8" d="M-101.9,987.4c0,0-3.1,4.1,1.4,10.2c4.6,6.1,8.3,11.4,6.8,15.2c0,0-6.9-11.4-12.5-11.6
		C-111.8,1001.1-108.1,994.3-101.9,987.4z"/>
	<path class="st8" d="M-101.9,987.4c-0.3,0.4-0.5,0.8-0.6,1.3c-5.5,6.4-8.4,12.4-3.1,12.6c4.9,0.1,10.8,8.9,12.2,11.1
		c0,0.2-0.1,0.3-0.2,0.5c0,0-6.9-11.4-12.5-11.6C-111.7,1001.1-108.1,994.3-101.9,987.4z"/>
	<path class="st16" d="M713.5,990.4c0,2.5,0.3,4.6,0.6,4.6s0.6-2,0.6-4.6s-0.4-1.3-0.7-1.3S713.5,987.8,713.5,990.4z"/>
	<path class="st16" d="M710,993.4c2.2,1.2,4.2,1.9,4.3,1.6c0.1-0.3-1.5-1.5-3.7-2.8s-1.3-0.3-1.5,0
		C708.9,992.5,707.8,992.2,710,993.4z"/>
	<path class="st8" d="M-85.5,987.4c0,0,3.1,4.1-1.4,10.2c-4.6,6.1-8.3,11.4-6.8,15.2c0,0,6.9-11.4,12.5-11.6
		C-75.6,1001.1-79.3,994.3-85.5,987.4z"/>
	<path class="st11" d="M-52.1,985.5c0.5,0.7,0.9,1.5,1.1,2.3c9.6,11.3,14.8,21.8,5.5,22.1c-8.6,0.2-19,15.7-21.4,19.5
		c0.1,0.3,0.2,0.6,0.3,0.9c0,0,12.1-20.1,22-20.4S-41.3,997.6-52.1,985.5z"/>
	<path class="st16" d="M-41.9,994.7c0,2.5-0.3,4.6-0.6,4.6c-0.4,0-0.6-2-0.6-4.6s0.4-1.3,0.7-1.3C-42.1,993.3-41.9,992.1-41.9,994.7
		z"/>
	<path class="st16" d="M-38.4,997.7c-2.2,1.2-4.2,1.9-4.3,1.6c-0.2-0.3,1.5-1.5,3.7-2.8c2.2-1.2,1.3-0.3,1.5,0
		S-36.2,996.5-38.4,997.7z"/>
	<path class="st17" d="M-80.7,1012.3c0,0-8.7-0.3-11.4-2.1c-2.6-1.9-13.4-4.1-14.1-1.1s-13.1,14.9-3.3,15c9.8,0.1,22.9-1.5,25.5-3.1
		C-81.2,1019.3-80.7,1012.3-80.7,1012.3z"/>
	<path class="st18" d="M-109.5,1023c9.8,0.1,22.9-1.5,25.5-3.1c2-1.2,2.8-5.6,3.1-7.6h0.3c0,0-0.6,7-3.2,8.6s-15.7,3.2-25.5,3.1
		c-2.8,0-3.8-1-3.8-2.5C-112.7,1022.5-111.6,1023-109.5,1023z"/>
</g>
</svg>
