<?xml version="1.0" encoding="utf-8"?>
<!-- Generator: Adobe Illustrator 19.0.0, SVG Export Plug-In . SVG Version: 6.00 Build 0)  -->
<svg version="1.1" id="Capa_1" xmlns="http://www.w3.org/2000/svg" xmlns:xlink="http://www.w3.org/1999/xlink" x="0px" y="0px"
	 viewBox="-412 399 852 223" style="enable-background:new -412 399 852 223;" xml:space="preserve">
<style type="text/css">
	.st0{fill:#F5F5F5;}
	.st1{fill:#E1E1E1;}
	.st2{fill:#ECECEC;}
	.st3{fill:#FAFAFA;}
	.st4{fill:#FFFFFF;}
	.st5{fill:#1A2E35;}
	.st6{fill:#383991;}
	.st7{fill:#FFBF9D;}
	.st8{fill:#FF9A6C;}
	.st9{fill:#F1BB41;}
	.st10{opacity:0.6;}
	.st11{opacity:0.2;}
	.st12{fill:#4C4B9E;}
	.st13{fill:#FF4F5B;}
</style>
<g>
	<g id="XMLID_1_">
		
			<rect id="XMLID_2_" x="-110.8" y="413" transform="matrix(0.9775 -0.2111 0.2111 0.9775 -97.2243 -7.2184)" class="st0" width="56.7" height="77.6"/>
	</g>
	<g id="XMLID_3_">
		<g id="XMLID_4_">
			<rect id="XMLID_120_" x="-9.2" y="409.5" class="st0" width="188.9" height="122.8"/>
		</g>
		<g id="XMLID_5_">
			<g id="XMLID_6_">
				<circle id="XMLID_117_" class="st1" cx="85.2" cy="465.7" r="25.7"/>
			</g>
			<g id="XMLID_7_">
				<polygon id="XMLID_115_" class="st0" points="93.9,465.7 87.1,469.6 80.4,473.4 80.4,465.7 80.4,457.9 87.1,461.8 				"/>
			</g>
		</g>
		<g id="XMLID_8_">
			<rect id="XMLID_102_" x="-9.2" y="510.2" class="st1" width="188.9" height="22.1"/>
		</g>
		<g id="XMLID_9_">
			<polygon id="XMLID_100_" class="st0" points="9.1,521.3 6.4,522.8 3.7,524.4 3.7,521.3 3.7,518.1 6.4,519.7 			"/>
		</g>
		<g id="XMLID_10_">
			<rect id="XMLID_11_" x="24.8" y="520.8" class="st0" width="139.3" height="1"/>
		</g>
		<g id="XMLID_12_">
			<circle id="XMLID_13_" class="st0" cx="25.5" cy="521.3" r="2.1"/>
		</g>
	</g>
	<g id="XMLID_14_">
		<g id="XMLID_15_">
			<g id="XMLID_16_">
				<g id="XMLID_17_">
					<path id="XMLID_287_" class="st0" d="M418.7,590.8H236.3c-3,0-5.5-2.5-5.5-5.5V422c0-3,2.5-5.5,5.5-5.5h182.4
						c3,0,5.5,2.5,5.5,5.5v163.3C424.2,588.3,421.7,590.8,418.7,590.8z"/>
				</g>
				<g id="XMLID_18_">
					<path id="XMLID_285_" class="st2" d="M424.2,436H230.8v-13c0-3.5,2.9-6.4,6.4-6.4h180.6c3.5,0,6.4,2.9,6.4,6.4V436z"/>
				</g>
				<g id="XMLID_19_">
					<circle id="XMLID_283_" class="st3" cx="242.6" cy="426.3" r="1.5"/>
				</g>
				<g id="XMLID_20_">
					<circle id="XMLID_21_" class="st3" cx="251.8" cy="426.3" r="1.5"/>
				</g>
				<g id="XMLID_22_">
					<circle id="XMLID_279_" class="st3" cx="260.9" cy="426.3" r="1.5"/>
				</g>
			</g>
			<g id="XMLID_23_">
				<rect id="XMLID_276_" x="327.9" y="451.6" class="st3" width="73" height="2.6"/>
			</g>
			<g id="XMLID_24_">
				<rect id="XMLID_274_" x="327.9" y="462.5" class="st3" width="73" height="2.6"/>
			</g>
			<g id="XMLID_25_">
				<rect id="XMLID_272_" x="327.9" y="473.4" class="st3" width="73" height="2.6"/>
			</g>
			<g id="XMLID_26_">
				<rect id="XMLID_185_" x="327.9" y="484.3" class="st3" width="73" height="2.6"/>
			</g>
			<g id="XMLID_27_">
				<rect id="XMLID_183_" x="327.9" y="495.1" class="st3" width="36.5" height="2.6"/>
			</g>
			<g id="XMLID_28_">
				<rect id="XMLID_181_" x="250.4" y="516.5" class="st3" width="73" height="2.6"/>
			</g>
			<g id="XMLID_29_">
				<rect id="XMLID_179_" x="250.4" y="527.4" class="st3" width="73" height="2.6"/>
			</g>
			<g id="XMLID_30_">
				<rect id="XMLID_177_" x="250.4" y="538.3" class="st3" width="73" height="2.6"/>
			</g>
			<g id="XMLID_31_">
				<rect id="XMLID_175_" x="250.4" y="549.2" class="st3" width="73" height="2.6"/>
			</g>
			<g id="XMLID_32_">
				<rect id="XMLID_173_" x="286.9" y="560" class="st3" width="36.5" height="2.6"/>
			</g>
		</g>
		<g id="XMLID_33_">
			<g id="XMLID_34_">
				<rect id="XMLID_170_" x="336" y="513.6" class="st3" width="62.5" height="52"/>
			</g>
			<g id="XMLID_35_">
				<polygon id="XMLID_36_" class="st2" points="335.9,549.9 354.4,537 367.3,545.9 387.5,528.7 398.5,539.6 398.5,565.6 336,565.6 
									"/>
			</g>
			<g id="XMLID_37_">
				<circle id="XMLID_166_" class="st2" cx="368.3" cy="528.7" r="5.2"/>
			</g>
		</g>
		<g id="XMLID_38_">
			<g id="XMLID_39_">
				<rect id="XMLID_163_" x="250.4" y="450" class="st3" width="62.5" height="52"/>
			</g>
			<g id="XMLID_40_">
				<polygon id="XMLID_41_" class="st2" points="250.3,486.3 268.7,473.4 281.6,482.3 301.9,465.2 312.9,476 312.9,502 250.4,502 
									"/>
			</g>
			<g id="XMLID_42_">
				<circle id="XMLID_159_" class="st2" cx="282.7" cy="465.2" r="5.2"/>
			</g>
		</g>
	</g>
	<g id="XMLID_43_">
		<g id="XMLID_44_">
			<g id="XMLID_45_">
				<g id="XMLID_46_">
					<path id="XMLID_144_" class="st0" d="M-168.2,546.8h-223.3c-2.6,0-4.7-2.1-4.7-4.7V420.8h232.6v121.4
						C-163.6,544.7-165.6,546.8-168.2,546.8z"/>
				</g>
				<g id="XMLID_47_">
					<rect id="XMLID_142_" x="-396.2" y="420.8" class="st2" width="232.6" height="23.4"/>
				</g>
				<g id="XMLID_48_">
					<circle id="XMLID_140_" class="st3" cx="-382" cy="432.5" r="1.8"/>
				</g>
				<g id="XMLID_49_">
					<circle id="XMLID_138_" class="st3" cx="-371" cy="432.5" r="1.8"/>
				</g>
				<g id="XMLID_50_">
					<circle id="XMLID_136_" class="st3" cx="-360" cy="432.5" r="1.8"/>
				</g>
			</g>
			<g id="XMLID_51_">
				<rect id="XMLID_133_" x="-279.4" y="463.1" class="st2" width="87.8" height="3.2"/>
			</g>
			<g id="XMLID_52_">
				<rect id="XMLID_131_" x="-279.4" y="476.2" class="st2" width="87.8" height="3.2"/>
			</g>
			<g id="XMLID_53_">
				<rect id="XMLID_129_" x="-279.4" y="489.2" class="st2" width="87.8" height="3.2"/>
			</g>
			<g id="XMLID_54_">
				<rect id="XMLID_127_" x="-279.4" y="502.3" class="st2" width="87.8" height="3.2"/>
			</g>
			<g id="XMLID_55_">
				<rect id="XMLID_125_" x="-279.4" y="515.4" class="st2" width="43.9" height="3.2"/>
			</g>
		</g>
		<g id="XMLID_56_">
			<g id="XMLID_57_">
				<rect id="XMLID_270_" x="-376.9" y="460.8" class="st3" width="75.2" height="62.5"/>
			</g>
			<g id="XMLID_58_">
				<polygon id="XMLID_59_" class="st2" points="-377,504.5 -354.8,488.9 -339.3,499.7 -314.9,479 -301.7,492.1 -301.7,523.4 
					-376.9,523.4 				"/>
			</g>
			<g id="XMLID_60_">
				<circle id="XMLID_61_" class="st2" cx="-338" cy="479" r="6.3"/>
			</g>
		</g>
	</g>
	<g id="XMLID_63_">
		<g id="XMLID_313_">
			<g id="XMLID_65_">
				
					<rect id="XMLID_66_" x="-117.8" y="426.6" transform="matrix(0.9775 -0.2111 0.2111 0.9775 -100.272 -8.3857)" class="st4" width="56.7" height="77.6"/>
			</g>
			<g id="XMLID_67_">
				<g id="XMLID_68_">
					<path id="XMLID_69_" class="st5" d="M-53.5,497.4c0,0,0-0.1-0.1-0.4c-0.1-0.3-0.1-0.6-0.2-1.1c-0.2-1-0.5-2.3-0.9-4.1
						c-0.8-3.6-2-8.9-3.4-15.6c-2.9-13.3-7-32.3-11.9-54.7l0.3,0.2c-16.7,3.6-35.5,7.7-55.4,12l0,0l0.2-0.3
						c6.1,28.3,11.7,54.6,16.3,75.8l-0.3-0.2c16.8-3.6,30.6-6.5,40.3-8.6c4.8-1,8.6-1.8,11.2-2.4c1.3-0.3,2.3-0.5,3-0.6
						C-53.9,497.4-53.5,497.4-53.5,497.4s-0.3,0.1-1,0.2c-0.7,0.2-1.6,0.4-2.9,0.7c-2.6,0.6-6.3,1.4-11.1,2.5
						c-9.7,2.1-23.5,5.2-40.4,8.8l-0.2,0l0-0.2c-4.6-21.3-10.3-47.5-16.4-75.8l-0.1-0.3l0.3-0.1l0,0c19.9-4.3,38.7-8.3,55.4-11.9
						l0.2,0l0,0.2c4.8,22.5,8.9,41.5,11.7,54.9c1.4,6.7,2.5,11.9,3.3,15.5c0.4,1.8,0.7,3.2,0.9,4.1c0.1,0.5,0.2,0.8,0.2,1
						C-53.5,497.3-53.5,497.4-53.5,497.4z"/>
				</g>
			</g>
		</g>
		<g id="XMLID_64_">
			<g id="XMLID_70_">
				
					<ellipse id="XMLID_71_" transform="matrix(0.9775 -0.2111 0.2111 0.9775 -96.0928 -11.4327)" class="st5" cx="-101.6" cy="444.3" rx="13.8" ry="0.3"/>
			</g>
		</g>
		<g id="XMLID_72_">
			<g id="XMLID_73_">
				
					<ellipse id="XMLID_74_" transform="matrix(0.9775 -0.2111 0.2111 0.9775 -96.9537 -9.4817)" class="st5" cx="-92.9" cy="449.4" rx="21.2" ry="0.3"/>
			</g>
		</g>
		<g id="XMLID_75_">
			<g id="XMLID_76_">
				
					<ellipse id="XMLID_77_" transform="matrix(0.9775 -0.2111 0.2111 0.9775 -98.3715 -9.0133)" class="st5" cx="-91.4" cy="456.2" rx="21.2" ry="0.3"/>
			</g>
		</g>
		<g id="XMLID_78_">
			<g id="XMLID_79_">
				
					<ellipse id="XMLID_80_" transform="matrix(0.9775 -0.2111 0.2111 0.9775 -99.7894 -8.5449)" class="st5" cx="-89.9" cy="463.1" rx="21.2" ry="0.3"/>
			</g>
		</g>
		<g id="XMLID_81_">
			<g id="XMLID_82_">
				
					<ellipse id="XMLID_83_" transform="matrix(0.9775 -0.2111 0.2111 0.9775 -101.2073 -8.0765)" class="st5" cx="-88.4" cy="470" rx="21.2" ry="0.3"/>
			</g>
		</g>
		<g id="XMLID_84_">
			<g id="XMLID_85_">
				
					<ellipse id="XMLID_86_" transform="matrix(0.9775 -0.2111 0.2111 0.9775 -102.6262 -7.6081)" class="st5" cx="-86.9" cy="476.9" rx="21.2" ry="0.3"/>
			</g>
		</g>
		<g id="XMLID_87_">
			<g id="XMLID_88_">
				
					<ellipse id="XMLID_89_" transform="matrix(0.9775 -0.2111 0.2111 0.9775 -104.043 -7.1398)" class="st5" cx="-85.5" cy="483.7" rx="21.2" ry="0.3"/>
			</g>
		</g>
		<g id="XMLID_90_">
			<g id="XMLID_91_">
				
					<ellipse id="XMLID_92_" transform="matrix(0.9775 -0.2111 0.2111 0.9775 -106.115 -8.6505)" class="st5" cx="-93.6" cy="492.7" rx="11.4" ry="0.3"/>
			</g>
		</g>
	</g>
	<g id="XMLID_104_">
		<g id="XMLID_111_">
			<g id="XMLID_112_">
				<path id="XMLID_113_" class="st5" d="M-162.4,504.1c-0.1,0,0-1.6-0.7-4.4c-0.3-1.4-1-3-2-4.8c-1-1.7-2.5-3.5-4.6-5.1
					c-2-1.5-4.6-2.8-7.6-3.3c-2.9-0.5-6.3-0.4-9.4,0.8c-1.6,0.6-3.1,1.4-4.5,2.4c-0.7,0.5-1.4,1.1-2,1.7c-0.6,0.7-1.2,1.3-1.8,2.1
					c-2.2,2.9-3.4,6.7-3.5,10.6c0,3.9,1.3,7.6,3.5,10.6c0.5,0.8,1.2,1.4,1.8,2.1c0.7,0.6,1.3,1.2,2,1.7c1.4,1.1,2.9,1.9,4.5,2.4
					c3.2,1.2,6.5,1.3,9.4,0.8c3-0.5,5.5-1.8,7.6-3.3c2-1.5,3.5-3.3,4.6-5.1c1-1.7,1.7-3.4,2-4.8
					C-162.3,505.7-162.5,504.1-162.4,504.1c0,0,0,0.1,0,0.3c0,0.2,0,0.5,0,0.9c0,0.4,0,0.9-0.1,1.4c-0.1,0.6-0.1,1.2-0.3,1.9
					c-0.3,1.4-0.9,3.1-2,4.9c-1,1.8-2.5,3.6-4.6,5.2c-2.1,1.6-4.7,2.9-7.7,3.5c-3,0.5-6.4,0.5-9.6-0.8c-1.6-0.6-3.2-1.4-4.7-2.5
					c-0.7-0.5-1.4-1.2-2.1-1.8c-0.6-0.7-1.3-1.4-1.8-2.1c-2.3-3-3.6-6.9-3.6-10.9c0-4,1.3-7.9,3.6-10.9c0.5-0.8,1.2-1.4,1.8-2.1
					c0.7-0.6,1.3-1.3,2.1-1.8c1.4-1.1,3-1.9,4.7-2.5c3.2-1.2,6.6-1.3,9.6-0.8c3,0.6,5.6,1.9,7.7,3.5c2.1,1.6,3.6,3.4,4.6,5.2
					c1,1.8,1.7,3.5,2,4.9c0.2,0.7,0.3,1.3,0.3,1.9c0.1,0.6,0.1,1,0.1,1.4c0,0.4,0,0.6,0,0.9C-162.3,504-162.3,504.1-162.4,504.1z"/>
			</g>
		</g>
		<g id="XMLID_108_">
			<g id="XMLID_109_">
				<ellipse id="XMLID_110_" class="st5" cx="-180.5" cy="504.1" rx="0.3" ry="9.1"/>
			</g>
		</g>
		<g id="XMLID_105_">
			<g id="XMLID_106_">
				<ellipse id="XMLID_107_" class="st5" cx="-180.5" cy="504.1" rx="9.1" ry="0.3"/>
			</g>
		</g>
	</g>
	<g id="XMLID_118_">
		<g id="XMLID_186_">
			<g id="XMLID_187_">
				<g id="XMLID_188_">
					<g id="XMLID_189_">
						<path id="XMLID_347_" class="st4" d="M161,593.9H-97.1c-13.1,0-23.8-10.7-23.8-23.8v-2.6c0-13.1,10.7-23.8,23.8-23.8H161
							c13.1,0,23.8,10.7,23.8,23.8v2.6C184.8,583.3,174.2,593.9,161,593.9z"/>
					</g>
					<g id="XMLID_190_">
						<path id="XMLID_191_" class="st6" d="M117.1,543.3v50.6h42.7c14,0,25.3-11.3,25.3-25.3l0,0c0-14-11.3-25.3-25.3-25.3H117.1z"
							/>
					</g>
					<g id="XMLID_192_">
						<g id="XMLID_193_">
							<g id="XMLID_194_">
								<path id="XMLID_195_" class="st4" d="M156.8,567.2c-0.1,0,0-1-0.4-2.6c-0.4-1.6-1.5-4-3.9-5.8c-1.2-0.9-2.7-1.6-4.4-1.9
									c-1.7-0.3-3.7-0.2-5.5,0.5c-0.9,0.3-1.8,0.8-2.6,1.4c-0.8,0.6-1.6,1.4-2.2,2.2c-1.3,1.7-2,3.9-2,6.2c0,2.3,0.7,4.5,2,6.2
									c0.6,0.9,1.4,1.6,2.2,2.2c0.8,0.6,1.7,1.1,2.6,1.4c1.8,0.7,3.8,0.8,5.5,0.5c1.7-0.3,3.2-1.1,4.4-1.9
									c2.4-1.8,3.5-4.2,3.9-5.8C156.8,568.1,156.8,567.2,156.8,567.2c0,0,0.1,1-0.2,2.6c-0.4,1.6-1.4,4.1-3.9,6
									c-1.2,0.9-2.8,1.7-4.6,2.1c-1.8,0.3-3.8,0.3-5.7-0.4c-1-0.3-1.9-0.8-2.8-1.5c-0.9-0.6-1.7-1.4-2.3-2.3
									c-1.4-1.8-2.1-4.1-2.1-6.5c0-2.4,0.8-4.7,2.1-6.5c0.7-0.9,1.4-1.7,2.3-2.3c0.9-0.6,1.8-1.1,2.8-1.5c1.9-0.7,4-0.8,5.7-0.4
									c1.8,0.3,3.3,1.1,4.6,2.1c2.5,1.9,3.5,4.4,3.9,6C157,566.2,156.8,567.2,156.8,567.2z"/>
							</g>
						</g>
						<g id="XMLID_196_">
							<g id="XMLID_197_">
								
									<ellipse id="XMLID_198_" transform="matrix(0.8131 0.5822 -0.5822 0.8131 366.4453 14.4363)" class="st4" cx="160.7" cy="577.8" rx="7.4" ry="0.3"/>
							</g>
						</g>
					</g>
				</g>
				<g id="XMLID_199_">
					<rect id="XMLID_335_" x="-91.8" y="564.1" class="st2" width="186.8" height="10.7"/>
				</g>
			</g>
			<g id="XMLID_200_">
				<g id="XMLID_201_">
					<path id="XMLID_202_" class="st5" d="M161,593.9c0,0,0.6,0,1.7-0.1c0.6,0,1.3-0.1,2.1-0.3c0.8-0.1,1.8-0.4,2.9-0.7
						c2.1-0.7,4.7-1.7,7.3-3.7c0.3-0.2,0.7-0.5,1-0.7c0.3-0.3,0.6-0.6,1-0.9c0.7-0.6,1.3-1.2,1.9-1.9c0.6-0.7,1.2-1.5,1.8-2.3
						c0.3-0.4,0.5-0.9,0.8-1.3l0.4-0.7l0.3-0.7c1-1.9,1.6-4,2.1-6.3c0.1-0.6,0.2-1.2,0.3-1.8c0-0.6,0.1-1.2,0.1-1.8
						c0.1-1.2,0-2.5,0-3.8c-0.1-5.1-2-10.7-6-15.2c-4-4.5-10.1-7.7-16.9-7.9c-6.8-0.1-14.1,0-21.6,0c-60.7,0-144.5,0-237.1,0.1
						c-5.7,0-11.4,2.2-15.6,5.9c-4.2,3.7-7.1,9-7.7,14.6c-0.1,0.7-0.1,1.4-0.2,2.1c0,0.7-0.1,1.4,0,2.1c0,1.4,0,2.8,0.2,4.2
						c0.3,2.8,1.1,5.4,2.4,7.9c2.5,4.9,6.7,8.9,11.6,11c2.5,1.1,5.1,1.7,7.8,1.9c1.3,0.1,2.7,0.1,4,0.1c1.3,0,2.7,0,4,0
						c5.4,0,10.7,0,15.9,0c10.5,0,20.8,0,30.8,0c40.1,0,76.3,0,106.6,0.1c30.3,0,54.9,0.1,71.9,0.1c8.5,0,15.1,0,19.5,0
						c2.2,0,3.9,0,5.1,0C160.4,593.9,161,593.9,161,593.9s-0.6,0-1.7,0c-1.2,0-2.9,0-5.1,0c-4.5,0-11.1,0-19.5,0
						c-17,0-41.5,0-71.9,0.1c-30.3,0-66.5,0-106.6,0.1c-10,0-20.3,0-30.8,0c-5.3,0-10.6,0-15.9,0c-1.3,0-2.7,0-4,0
						c-1.3,0-2.7,0-4.1-0.1c-2.7-0.2-5.4-0.8-8-1.9c-5.1-2.2-9.4-6.2-11.9-11.2c-1.3-2.5-2.1-5.2-2.4-8.1c-0.1-1.4-0.2-2.8-0.2-4.2
						c0-0.7,0-1.4,0-2.1c0-0.7,0-1.4,0.2-2.1c0.7-5.7,3.6-11.1,7.9-14.9c4.3-3.9,10.1-6.1,16-6.1c92.6,0,176.4,0.1,237.1,0.1
						c7.6,0,14.8,0,21.7,0.1c6.9,0.2,13.1,3.5,17.1,8c4,4.5,6,10.2,6,15.4c0,1.3,0,2.6,0,3.8c0,0.6-0.1,1.2-0.1,1.8
						c-0.1,0.6-0.2,1.2-0.3,1.8c-0.5,2.3-1.1,4.5-2.1,6.4c-0.1,0.2-0.2,0.5-0.3,0.7l-0.4,0.7c-0.3,0.4-0.5,0.9-0.8,1.3
						c-0.6,0.8-1.1,1.6-1.8,2.3c-0.6,0.7-1.2,1.4-1.9,2c-0.3,0.3-0.6,0.6-1,0.9c-0.3,0.3-0.7,0.5-1,0.7c-2.6,1.9-5.3,3-7.4,3.7
						c-1.1,0.3-2,0.5-2.9,0.6c-0.8,0.1-1.5,0.2-2.1,0.2C161.6,593.9,161,593.9,161,593.9z"/>
				</g>
			</g>
		</g>
	</g>
	<g id="XMLID_203_">
		<g id="XMLID_204_">
			<g id="XMLID_205_">
				<g id="XMLID_206_">
					<path id="XMLID_424_" class="st7" d="M28.6,562.7c-0.9-1.1-1-2,1-2.1c4.5-0.4,7.8-2.4,8.4-3.5c0.5-1.1-0.9-2.3-2.1-1.6
						c-1,0.6-2.9,1-4.4,1.2c-1.2,0.2-2.4,0.2-3.7,0c-1.1-0.2-2-0.3-2.8-0.5c0,0-4.8-1-6.8-2.6L8.1,564.4l4.7,5.4c0,0,2.3,3.4,6.3,3
						c4.1-0.4,9.5-3.3,9.5-3.3c0.7-1.1,7.3,2.9,9.4,4.4c2.1,1.5,3.7,1.1,3.6-0.3c-0.1-1-6.4-5.8-8.5-7.2
						C32,565.5,29.7,564,28.6,562.7"/>
				</g>
			</g>
			<g id="XMLID_207_">
				<g id="XMLID_208_">
					<path id="XMLID_209_" class="st8" d="M22.7,572.1c0,0.1-0.3,0.2-0.8,0.2c-0.5,0-1.2-0.2-1.9-0.7c-0.6-0.5-1-1.1-1.2-1.6
						c-0.2-0.5-0.1-0.8-0.1-0.8c0.1,0,0.4,1.2,1.5,2C21.4,572,22.6,571.9,22.7,572.1z"/>
				</g>
			</g>
			<g id="XMLID_210_">
				<g id="XMLID_211_">
					<path id="XMLID_212_" class="st8" d="M26.7,570.5c0,0.1-0.3,0.2-0.8,0.1c-0.5,0-1.2-0.2-1.8-0.7c-0.6-0.5-1-1.1-1.1-1.6
						c-0.2-0.5-0.1-0.8-0.1-0.8c0.1,0,0.4,1.1,1.5,1.9C25.5,570.4,26.6,570.4,26.7,570.5z"/>
				</g>
			</g>
		</g>
		<g id="XMLID_213_">
			<path id="XMLID_414_" class="st6" d="M37.5,458.2c0.4,8.9,11.2,21,19.3,23c4.2,1,9.1,0.5,12.4,3.4c5.7,4.9,2.4,15,6.3,21.5
				c2.4,4,7.1,6,9.8,9.8c4.5,6.3,1.5,15.9-4.6,20.6c-6.1,4.7-14.2,5.6-21.8,5.4c-16.7-0.4-33.9-5.8-46-17.6
				c-5.7-5.6-27.9-22.8-20.2-63.6"/>
		</g>
		<g id="XMLID_214_">
			<path id="XMLID_215_" class="st9" d="M98,521.6l-63.7-18.9C29,500.5,25,500,25,500l-21.5,0.1c-2.9,0-5.7,0.6-8.2,1.7l-58,19.3
				c-4.3,1.4-7.3,5.8-7.3,10.8v0c0,6.2,4.5,11.2,9.9,11.2h26.8c-0.1,0.3-0.1,0.4-0.1,0.4l93.1,0.3c0,0,0,0,0,0l35.5,0.1
				c5.5,0,9.9-5.1,9.9-11.3C105.2,527.5,102.3,523,98,521.6z"/>
			<g id="XMLID_216_">
				<g id="XMLID_217_">
					<path id="XMLID_218_" class="st9" d="M85.2,528.5c0,0-0.2,0-0.6,0c-0.4,0-1-0.1-1.6-0.2c-1.4-0.2-3.5-0.4-6-0.7
						c-5.1-0.5-12.2-0.9-20-0.8c-7.8,0.1-14.9,0.7-19.9,1.4c-2.5,0.3-4.6,0.6-6,0.8c-0.7,0.1-1.2,0.2-1.6,0.2c-0.4,0-0.6,0.1-0.6,0
						c0,0,0.2-0.1,0.6-0.1c0.4-0.1,1-0.2,1.6-0.3c1.4-0.3,3.5-0.6,6-1c5.1-0.7,12.1-1.4,20-1.5c7.8-0.1,14.9,0.4,20,1
						c2.5,0.3,4.6,0.6,6,0.8c0.7,0.1,1.2,0.2,1.6,0.3C85,528.5,85.2,528.5,85.2,528.5z"/>
				</g>
			</g>
			<g id="XMLID_219_" class="st10">
				<g id="XMLID_220_">
					<path id="XMLID_221_" class="st9" d="M70.3,513.1c0,0-0.1,0.1-0.2,0.2c-0.1,0.2-0.3,0.3-0.6,0.6c-0.5,0.5-1.2,1.3-2.3,2.2
						c-1,0.9-2.3,2-3.9,3.1c-1.6,1.1-3.6,2.2-5.9,2.8c-2.4,0.7-5.2,0.6-8-0.2c-2.8-0.7-5.6-2.2-8.4-3.7c-2.8-1.5-5.8-3.2-9.1-4.3
						c-3.3-1.1-7-1.1-10.4,0.5c-3.4,1.5-6.2,3.8-9.3,5.5c-0.8,0.4-1.6,0.8-2.4,1.1c-0.8,0.3-1.6,0.6-2.4,0.8
						c-1.6,0.5-3.3,0.7-4.9,0.8c-6.5,0.5-12.3-1.6-16.3-4.5c-2-1.4-3.5-3-4.9-4.4c-1.4-1.3-2.7-2.4-3.8-3.1
						c-2.3-1.4-3.9-1.4-3.9-1.5c0,0,0.4,0,1.1,0.1c0.7,0.1,1.7,0.5,2.9,1.2c1.2,0.7,2.5,1.8,3.9,3.1c1.4,1.3,3,2.9,4.9,4.3
						c3.9,2.7,9.7,4.8,16,4.3c1.6-0.1,3.2-0.4,4.8-0.8c0.8-0.2,1.6-0.5,2.4-0.8c0.8-0.4,1.6-0.7,2.3-1.1c3.1-1.6,5.9-3.9,9.3-5.5
						c3.4-1.6,7.4-1.7,10.7-0.5c3.4,1,6.3,2.8,9.1,4.3c2.8,1.5,5.5,3,8.3,3.7c2.7,0.8,5.4,0.8,7.7,0.2c2.3-0.6,4.3-1.7,5.9-2.7
						c1.6-1.1,2.9-2.1,3.9-3c1-0.9,1.8-1.6,2.3-2.1c0.2-0.2,0.4-0.4,0.6-0.6C70.2,513.1,70.3,513.1,70.3,513.1z"/>
				</g>
			</g>
			<g id="XMLID_222_" class="st11">
				<polygon id="XMLID_223_" class="st9" points="-28.7,528.4 11.6,536 6.9,543.6 5.7,543.6 				"/>
			</g>
			<g id="XMLID_224_" class="st10">
				<g id="XMLID_225_">
					<path id="XMLID_226_" class="st9" d="M93.2,520.4c0,0,0,0.2,0,0.6c0,0.4-0.1,1-0.2,1.8c-0.3,1.5-0.9,3.7-2.4,6
						c-1.5,2.3-4.1,4.6-7.6,5.8c-1.7,0.6-3.7,1-5.7,0.9c-2-0.1-4-0.5-6-1.1c-2-0.6-4-1.2-5.9-1.6c-1.9-0.4-3.8-0.5-5.6-0.3
						c-3.6,0.4-6.5,1.9-8.7,3.6c-2.2,1.6-3.5,3.4-4.3,4.7c-0.2,0.3-0.4,0.6-0.5,0.9c-0.1,0.2-0.2,0.5-0.3,0.7
						c-0.2,0.4-0.3,0.5-0.3,0.5c0,0,0.1-0.2,0.2-0.6c0.1-0.2,0.2-0.4,0.3-0.7c0.1-0.3,0.3-0.6,0.5-0.9c0.8-1.3,2.1-3.2,4.3-4.9
						c2.1-1.7,5.2-3.3,8.8-3.7c1.8-0.2,3.8-0.2,5.7,0.3c2,0.4,3.9,1,5.9,1.6c2,0.6,4,1,5.9,1.1c1.9,0.1,3.8-0.2,5.5-0.8
						c3.4-1.2,5.9-3.4,7.5-5.6c1.6-2.2,2.2-4.4,2.5-5.9C93.1,521.3,93.1,520.4,93.2,520.4z"/>
				</g>
			</g>
			<g id="XMLID_227_">
				<g id="XMLID_228_">
					<path id="XMLID_400_" class="st9" d="M-62.6,541.7c0,0,72.8,32.1,72.4,31.4c-0.4-0.7,11.6-21.8,11.6-21.8l-58.9-29.1
						L-62.6,541.7z"/>
				</g>
				<g id="XMLID_229_">
					<g id="XMLID_230_">
						<path id="XMLID_231_" class="st9" d="M-29.2,526.3c0,0,0.5,0.2,1.5,0.6c1,0.5,2.4,1.1,4,1.9c3.4,1.6,8,3.9,13.1,6.4
							c5.1,2.5,9.7,4.8,13.1,6.5c1.6,0.8,2.9,1.5,3.9,2c0.9,0.5,1.4,0.8,1.4,0.8c0,0-0.5-0.2-1.5-0.6c-1-0.5-2.4-1.1-4-1.9
							c-3.4-1.6-8-3.9-13.1-6.4c-5.1-2.5-9.7-4.8-13.1-6.5c-1.6-0.8-2.9-1.5-3.9-2C-28.7,526.7-29.2,526.4-29.2,526.3z"/>
					</g>
				</g>
				<g id="XMLID_232_" class="st10">
					<g id="XMLID_233_">
						<path id="XMLID_234_" class="st9" d="M-13.2,536.1c0,0,0,0.8-0.7,2.2c-0.6,1.3-2,3.1-4.3,4.3c-1.2,0.6-2.5,1.2-4,1.4
							c-1.5,0.3-3.2,0.3-4.9,0.1c-3.5-0.4-7-1.9-10.6-3.6c-3.6-1.7-7-3.3-10.3-4.1c-1.7-0.4-3.3-0.6-4.8-0.6c-1.5,0-2.9,0.3-4.1,0.7
							c-2.4,0.8-4.2,2.1-5.1,3.2c-0.9,1.1-1.3,1.8-1.3,1.8c0,0,0.2-0.8,1.2-1.9c0.9-1.2,2.6-2.6,5.1-3.4c1.2-0.4,2.7-0.7,4.2-0.8
							c1.5-0.1,3.2,0.1,4.9,0.5c3.4,0.8,6.9,2.4,10.4,4.1c3.6,1.7,7.1,3.1,10.5,3.6c1.7,0.2,3.3,0.2,4.8,0c1.5-0.2,2.8-0.7,3.9-1.3
							c2.3-1.2,3.7-2.8,4.3-4.1C-13.4,536.9-13.3,536.1-13.2,536.1z"/>
					</g>
				</g>
				<g id="XMLID_235_" class="st10">
					<g id="XMLID_236_">
						<path id="XMLID_237_" class="st9" d="M17.7,558.1c0,0.1-1.6-0.2-4.2-0.2c-1.3,0-2.8,0-4.5,0.2c-1.7,0.2-3.6,0.6-5.5,1.1
							c-1.9,0.5-3.7,1.2-5.2,1.9c-1.5,0.7-2.9,1.5-4,2.2c-2.2,1.4-3.4,2.5-3.5,2.4c0,0,0.3-0.3,0.8-0.8c0.5-0.5,1.4-1.2,2.5-1.9
							c1.1-0.8,2.4-1.5,4-2.3c1.6-0.7,3.4-1.5,5.3-2c1.9-0.5,3.8-0.9,5.6-1.1c1.7-0.2,3.3-0.2,4.6-0.1c1.3,0.1,2.4,0.2,3.1,0.3
							C17.3,558,17.7,558.1,17.7,558.1z"/>
					</g>
				</g>
			</g>
			<g id="XMLID_238_" class="st11">
				<path id="XMLID_239_" class="st9" d="M26.6,499.8c-1.2,3.4,0.6,7,2.4,10.1c1.2,2.2,2.5,4.4,4.2,6.1c1.8,1.8,4.1,3.1,6.6,3
					c3.3-0.1,6.2-2.5,9.5-2.3c2.2,0.1,4.2,1.4,6,2.7c3.2,2.2,6.5,4.3,10.1,5.6c3.6,1.3,7.6,1.8,11.3,0.7c3.7-1.1,7-4,7.8-7.8"/>
			</g>
		</g>
		<g id="XMLID_240_">
			<g id="XMLID_241_">
				<g id="XMLID_242_">
					<g id="XMLID_243_">
						<path id="XMLID_385_" class="st7" d="M26.9,498.9c0.2-3.9,0.4-7.5,0.4-7.5s8.8-1.1,9.1-10c0.4-8.9-0.5-29.5-0.5-29.5
							l-16.1-7.7l-17.3,14l2.7,41c0.4,5.9,5.4,10.4,11.4,10.2l0,0C22.2,509,26.7,504.5,26.9,498.9z"/>
					</g>
					<g id="XMLID_244_">
						<g id="XMLID_245_">
							
								<ellipse id="XMLID_383_" transform="matrix(0.9998 -1.733169e-002 1.733169e-002 0.9998 -8.1072 0.6472)" class="st5" cx="33.3" cy="468.1" rx="1.1" ry="1.1"/>
						</g>
						<g id="XMLID_246_">
							<g id="XMLID_247_">
								<path id="XMLID_381_" class="st5" d="M35.5,465.6c-0.1,0.2-1-0.6-2.2-0.6c-1.2-0.1-2.1,0.6-2.2,0.4
									c-0.1-0.1,0.1-0.3,0.5-0.6c0.4-0.3,1-0.5,1.8-0.5c0.7,0,1.4,0.4,1.7,0.7C35.4,465.3,35.5,465.6,35.5,465.6z"/>
							</g>
						</g>
					</g>
					<g id="XMLID_248_">
						<g id="XMLID_249_">
							
								<ellipse id="XMLID_377_" transform="matrix(0.9998 -1.733402e-002 1.733402e-002 0.9998 -8.1103 0.417)" class="st5" cx="20" cy="468.1" rx="1.1" ry="1.1"/>
						</g>
						<g id="XMLID_250_">
							<g id="XMLID_251_">
								<path id="XMLID_375_" class="st5" d="M22.2,465.9c-0.1,0.2-1-0.6-2.2-0.6c-1.2-0.1-2.1,0.6-2.2,0.4
									c-0.1-0.1,0.1-0.3,0.5-0.6c0.4-0.3,1-0.5,1.8-0.5c0.7,0,1.4,0.4,1.7,0.7C22.1,465.5,22.3,465.8,22.2,465.9z"/>
							</g>
						</g>
					</g>
					<g id="XMLID_252_">
						<g id="XMLID_253_">
							<path id="XMLID_371_" class="st5" d="M26.7,476.2c0-0.1,0.7-0.2,2-0.3c0.3,0,0.6-0.1,0.7-0.3c0.1-0.2,0-0.6-0.2-1
								c-0.3-0.8-0.6-1.6-0.9-2.5c-1.2-3.6-2.1-6.6-1.9-6.6c0.1,0,1.2,2.8,2.4,6.4c0.3,0.9,0.6,1.7,0.8,2.5c0.1,0.4,0.3,0.8,0.1,1.3
								c-0.1,0.2-0.3,0.4-0.5,0.5c-0.2,0.1-0.4,0.1-0.5,0.1C27.5,476.3,26.7,476.3,26.7,476.2z"/>
						</g>
					</g>
					<g id="XMLID_254_">
						<path id="XMLID_368_" class="st4" d="M22.8,477.4c-1.2-0.8,3.4,2,5.8,1.9c0,0-1.5,2.3-4,1.2C22.1,479.5,22.8,477.4,22.8,477.4
							z"/>
					</g>
					<g id="XMLID_255_">
						<path id="XMLID_366_" class="st8" d="M27.3,491.4c0,0-5.9,0.2-11.6-3.8c0,0,2.7,6.5,11.4,6L27.3,491.4z"/>
					</g>
					<g id="XMLID_256_">
						<path id="XMLID_364_" class="st12" d="M-6.9,466.9L-6.9,466.9c0,7.7-2.1,28.2,12,31l-0.5-28.2c0,0,13.6-6.4,16-19.8l0.1,0.1
							c0.9,2,2.4,6.4,1.5,9.9l12.8,3.1l1.5,1.3c0,0,4.6-10-4.2-19c-8.8-9-16.3-2.5-21-3.1C8,442-2.9,442-7.3,460.7L-6.9,466.9z"/>
					</g>
				</g>
			</g>
			<g id="XMLID_257_">
				<g id="XMLID_258_">
					<g id="XMLID_259_">
						<path id="XMLID_260_" class="st7" d="M4.9,470.1c-1.2-0.7-2.8-0.1-3.8,0.9c-1.5,1.6-1.7,4.2-0.6,6.1c1.1,1.9,3.6,2.9,5.7,2.3"
							/>
					</g>
					<g id="XMLID_261_">
						<g id="XMLID_262_">
							<path id="XMLID_263_" class="st8" d="M4.7,476.7c0,0.1-0.4,0.1-1,0c-0.6-0.2-1.5-0.6-1.9-1.7c-0.2-0.5-0.1-1,0.1-1.5
								c0.2-0.4,0.5-0.7,0.8-0.9c0.6-0.4,1-0.3,1-0.3c0,0.1-0.3,0.2-0.8,0.6c-0.4,0.4-0.8,1.1-0.5,1.9c0.3,0.8,1,1.2,1.5,1.5
								C4.3,476.6,4.7,476.7,4.7,476.7z"/>
						</g>
					</g>
				</g>
				<g id="XMLID_264_">
					<path id="XMLID_265_" class="st13" d="M3.5,478.5c-0.6,0.2-1,1-0.6,1.6c0.4,0.5,1.3,0.5,1.7-0.1c0.3-0.6-0.1-1.4-0.7-1.5"/>
				</g>
			</g>
		</g>
		<g id="XMLID_266_">
			<path id="XMLID_267_" class="st7" d="M29.4,543.8v-14.7c0,0-21.8,4.5-22.2,14.5L29.4,543.8z"/>
		</g>
		<g id="XMLID_268_">
			<path id="XMLID_269_" class="st12" d="M27.1,497.3c0.4,4.5,2.4,8.8,5.7,11.9c3.3,3.1,7.7,4.9,12.2,5c3.2,0.1,6.6-0.7,9.6,0.6
				c2.6,1.1,4.2,3.6,6.2,5.6c4.7,4.6,12.1,6.2,18.3,4.1c2.6-0.9,6.8-2.8,7.3-5.5c0.4-2.1-2.2-4.2-3.7-5.7c-1.5-1.5-3.4-2.5-5.4-3.4
				c-15.5-7.3-32.2-12.6-49.4-13.5"/>
		</g>
	</g>
</g>
</svg>
